<?xml version="1.0" encoding="utf-8"?>
<!-- Generator: Adobe Illustrator 24.0.1, SVG Export Plug-In . SVG Version: 6.00 Build 0)  -->
<svg version="1.1" xmlns="http://www.w3.org/2000/svg" xmlns:xlink="http://www.w3.org/1999/xlink" x="0px" y="0px"
	 viewBox="0 0 431.91 276.36" style="enable-background:new 0 0 431.91 276.36;" xml:space="preserve">
<style type="text/css">
	.st0{fill:#B5DFEA;}
	.st1{opacity:0.55;fill:#90CEDD;}
	.st2{fill:#D7F0F9;}
	.st3{fill:#0582C1;}
	.st4{fill:#79C9E8;}
	.st5{fill:#FFFFFF;}
	.st6{fill:#FFBF4D;}
	.st7{fill:#00668E;}
	.st8{fill:#05556D;}
	.st9{fill:#F98D3D;}
	.st10{fill:#ED701B;}
	.st11{fill:none;}
	.st12{fill:#EFAA3A;}
	.st13{opacity:0.29;fill:#F98D2B;}
	.st14{fill:#49B4D6;}
	.st15{fill:#FF9F50;}
	.st16{fill:#F77E2D;}
	.st17{opacity:0.55;fill:url(#SVGID_1_);}
</style>
<g id="BACKGROUND">
</g>
<g id="OBJECTS">
	<g>
		<g>
			<path class="st0" d="M419.02,276.36c6.95,0,12.62-5.57,12.73-12.52c0.53-34.64,3.32-85.75-61.92-99.88
				c-52.8-11.44-21.49-105.27-163.69-99.21c-102.07,4.35-74.96,90.39-154.32,97.55c-52.81,4.77-53.27,71.56-51.24,102.16
				c0.44,6.69,6,11.89,12.71,11.89H419.02z"/>
			<g>
				<path class="st1" d="M369.82,163.96c-52.8-11.44-21.49-105.27-163.69-99.21c-24.28,1.03-41.24,6.7-54.07,14.81
					c4.32-0.57,8.91-0.97,13.8-1.17c142.19-6.06,110.89,87.77,163.69,99.21c64.55,13.98,62.51,64.15,61.94,98.76h27.52
					c6.95,0,12.62-5.57,12.73-12.52C432.28,229.19,435.07,178.09,369.82,163.96z"/>
			</g>
			<g>
				<g>
					<path class="st2" d="M306.73,60.75L139.78,41.27c-7.13-0.83-13.59,4.28-14.43,11.41L112.9,159.43
						c-0.83,7.13,4.28,13.59,11.41,14.43l166.95,19.49c7.13,0.83,13.59-4.28,14.43-11.41l12.46-106.75
						C318.97,68.05,313.87,61.59,306.73,60.75z"/>
					<path class="st3" d="M316.91,85.75l1.23-10.57c0.83-7.13-4.28-13.59-11.41-14.43L139.78,41.27
						c-7.13-0.83-13.59,4.28-14.43,11.41l-1.23,10.57L316.91,85.75z"/>
					<g>
						<path class="st4" d="M151.14,127.89L172.3,90.6c1.36-2.39,4.01-3.73,6.74-3.42l0,0c3.75,0.44,6.44,3.83,6,7.58l-4.4,37.72
							l0.19,0.02c2.6,0.3,4.46,2.66,4.16,5.25l0,0c-0.3,2.6-2.66,4.46-5.25,4.16l-0.19-0.02l-0.8,6.87
							c-0.33,2.81-2.87,4.82-5.67,4.49l0,0c-2.81-0.33-4.82-2.87-4.49-5.67l0.8-6.87l-15.24-1.78c-2.6-0.3-4.47-2.66-4.16-5.26
							l0.4-3.46C150.47,129.39,150.73,128.6,151.14,127.89z M170.54,130.68l2.73-23.39c0.02-0.16-0.2-0.23-0.28-0.09l-12.5,22.06
							c-0.22,0.39,0.03,0.88,0.47,0.93l8.89,1.04C170.19,131.26,170.5,131.02,170.54,130.68z"/>
						<path class="st4" d="M244.53,138.79l21.16-37.29c1.36-2.39,4.01-3.73,6.74-3.42l0,0c3.75,0.44,6.44,3.83,6,7.58l-4.4,37.72
							l0.19,0.02c2.6,0.3,4.46,2.66,4.16,5.25l0,0c-0.3,2.6-2.66,4.46-5.25,4.16l-0.19-0.02l-0.8,6.87
							c-0.33,2.81-2.87,4.82-5.67,4.49l0,0c-2.81-0.33-4.82-2.87-4.49-5.67l0.8-6.87l-15.24-1.78c-2.6-0.3-4.47-2.66-4.16-5.26
							l0.4-3.46C243.87,140.29,244.13,139.5,244.53,138.79z M263.94,141.58l2.73-23.39c0.02-0.16-0.2-0.23-0.28-0.09l-12.5,22.06
							c-0.22,0.39,0.03,0.88,0.47,0.93l8.89,1.04C263.59,142.17,263.9,141.92,263.94,141.58z"/>
						<path class="st4" d="M202.55,105.95c1.23-10.54,7.48-15.91,17.65-14.73c10.16,1.19,15.01,7.86,13.78,18.39l-4,34.25
							c-1.23,10.54-7.48,15.91-17.65,14.73c-10.16-1.19-15.01-7.86-13.78-18.39L202.55,105.95z M208.82,142.07
							c-0.55,4.7,1.31,6.73,4.61,7.12c3.29,0.38,5.57-1.16,6.12-5.87l4.15-35.57c0.55-4.7-1.31-6.73-4.61-7.12
							c-3.29-0.38-5.57,1.16-6.12,5.87L208.82,142.07z"/>
					</g>
					<g>
						<path class="st5" d="M143.81,56.02c-0.22,1.92-1.96,3.29-3.88,3.07c-1.92-0.22-3.29-1.96-3.07-3.88
							c0.22-1.92,1.96-3.29,3.88-3.07C142.66,52.37,144.03,54.1,143.81,56.02z"/>
						<path class="st4" d="M160.55,57.97c-0.22,1.92-1.96,3.29-3.88,3.07c-1.92-0.22-3.29-1.96-3.07-3.88s1.96-3.29,3.88-3.07
							C159.4,54.32,160.78,56.06,160.55,57.97z"/>
						<path class="st6" d="M177.91,60c-0.22,1.92-1.96,3.29-3.88,3.07c-1.92-0.22-3.29-1.96-3.07-3.88
							c0.22-1.92,1.96-3.29,3.88-3.07C176.76,56.35,178.13,58.08,177.91,60z"/>
					</g>
				</g>
			</g>
			<g>
				<path class="st7" d="M110.75,181.6c0,0-2.26,10-1.88,20.22c0.34,9.15-0.75,69.31-0.75,69.31h7.35c0,0,10.46-47.12,10.85-50.84
					c0.39-3.72,5.65-40.93,5.65-40.93L110.75,181.6z"/>
				<path class="st3" d="M115.64,178.86c0,0,1.69,12.85,4.57,21.99c2.88,9.13,17.01,70.29,17.01,70.29h7.35
					c0,0-1.35-47.12-1.86-50.84c-0.51-3.72-4.23-40.93-4.23-40.93L115.64,178.86z"/>
				<path class="st3" d="M137.81,271.12v5.13h13.99c0.79,0,1.11-1.03,0.44-1.47c-2.05-1.36-5.32-3.24-8.37-3.66H137.81z"/>
				<path class="st3" d="M108.49,271.12v5.13h13.99c0.79,0,1.11-1.03,0.44-1.47c-2.05-1.36-5.32-3.24-8.37-3.66H108.49z"/>
				<g>
					<path class="st7" d="M133.73,119.06c0,0,4.81-7.31-0.71-8.02c-4.24-0.55-5.99,0.72-5.99,0.72s-4.88-0.54-7.56,1.78
						c-1.83,1.59-8.55,13.9,2.32,18.35s8.55-6.95,8.55-6.95L133.73,119.06z"/>
					<path class="st8" d="M133.02,111.04c-4.24-0.55-5.99,0.72-5.99,0.72s-4.88-0.54-7.56,1.78c-1.83,1.59-8.55,13.9,2.32,18.35
						c5.11,2.09,7.3,0.68,8.2-1.4c-10.31,2.9-11.43-9.53-9.73-13.06c1.73-3.59,5.87-1.94,5.87-1.94c1.62-4.08,6.91-3.64,9.09-3.32
						C134.82,111.6,134.13,111.19,133.02,111.04z"/>
					<path class="st9" d="M126.96,122.63c0,0-1.43-1.43-2.49,0c-1.07,1.43-0.36,4.63,1.43,4.81c0,0-0.53,4.63-4.1,4.45v3.74h8.37
						v-2.85c0,0,5.17-2.14,4.99-6.41c-0.18-4.28-1.43-7.31-1.43-7.31S130.88,122.27,126.96,122.63z"/>
					<path class="st10" d="M128.24,133.98c0.83,0.35,0.68,0.87,0.72,1.65h1.2v-2.85c0,0-2.03,0.64-5-1.05
						C125.17,131.73,126.9,133.42,128.24,133.98z"/>
				</g>
				<path class="st9" d="M129.96,115.81c0,0-4.34-1.73-4.85-0.43c-0.33,0.85,0.51,1.58,1.67,2.32l-1.02,0.17
					c-0.23,0.04-0.31,0.33-0.13,0.47c0.28,0.23,1.07,0.38,2.71,0.44L129.96,115.81z"/>
				<g>
					<polygon class="st11" points="104.14,162.88 109.95,181.62 109.85,180.68 109.95,181.62 111.92,154.33 					"/>
					<path class="st6" d="M160.95,126.68c-8.28-6.13-30.88-11.04-30.88-11.04l-1.86,3.39c0,0,20.52,7.95,19.17,9.14
						c-0.8,0.7-10.82,5.29-14.22,6.84c-0.73,0.33-1.52,0.49-2.33,0.48l-10.39-0.06c0,0-7.5-0.89-13.39,5.88
						c-5.27,6.07-14.23,20.12-14.23,20.12l15.1,22.2l1.67,2.45l0.01-0.03l-0.01,0.21c0,0,0.54,0.06,1.49,0.15
						c4.85,0.45,20.41,1.68,28.64-0.07l0.23-0.05l-0.39-36.42c13.14-10.4,19.42-18.44,21.66-20.96
						C161.78,128.24,161.67,127.22,160.95,126.68z M110.3,176.35l-1.47-3.22l-4.69-10.25l7.78-8.72l-1.4,19.13L110.3,176.35z"/>
				</g>
				<polygon class="st12" points="108.82,173.13 110.3,176.35 109.58,186.06 109.57,186.09 107.9,183.64 				"/>
				<path class="st13" d="M136.02,148.57c-1.4,1.02-1.04,10.02-1.39,15.65c-0.58,9.43-1.14,17.59-0.73,22.85
					c2.13-0.14,4.11-0.37,5.79-0.73l0.23-0.05l-0.39-36.42c13.14-10.4,19.42-18.44,21.66-20.96c0.59-0.67,0.48-1.69-0.24-2.23
					C160.95,126.68,150.56,138.01,136.02,148.57z"/>
				<path class="st7" d="M142.7,220.29c-0.37-2.68-2.41-22.8-3.51-33.8l-5.28,0.58c0,0,7.7,63.33,8.21,84.06h2.44
					C144.56,271.13,143.21,224.01,142.7,220.29z"/>
				<g>
					<path class="st3" d="M108.84,123.66l-1.59-2.85c0.8-1.5,1.25-3.22,1.25-5.04c0-5.95-4.83-10.78-10.78-10.78
						c-5.95,0-10.78,4.83-10.78,10.78c0,5.95,4.83,10.78,10.78,10.78c3,0,5.71-1.23,7.66-3.2L108.84,123.66z"/>
					<g>
						<path class="st5" d="M92.11,114.79h0.42v1.5c0,0.46,0.14,0.66,0.46,0.66c0.25,0,0.43-0.13,0.66-0.41v-1.75h0.41v2.46h-0.34
							l-0.04-0.38h-0.02c-0.23,0.27-0.47,0.45-0.81,0.45c-0.52,0-0.75-0.33-0.75-0.96V114.79z"/>
						<path class="st5" d="M95.82,117.46v0.83H95.4v-3.5h0.34l0.03,0.28h0.02c0.22-0.19,0.5-0.34,0.78-0.34
							c0.63,0,0.97,0.49,0.97,1.25c0,0.83-0.5,1.33-1.06,1.33c-0.23,0-0.46-0.11-0.68-0.28L95.82,117.46z M96.42,116.97
							c0.4,0,0.7-0.37,0.7-0.98c0-0.54-0.18-0.91-0.65-0.91c-0.21,0-0.42,0.12-0.66,0.33v1.29
							C96.04,116.89,96.26,116.97,96.42,116.97z"/>
						<path class="st5" d="M98.65,116.7c0.21,0.17,0.43,0.29,0.72,0.29c0.32,0,0.49-0.17,0.49-0.38c0-0.25-0.29-0.36-0.56-0.47
							c-0.35-0.13-0.73-0.29-0.73-0.71c0-0.39,0.31-0.7,0.85-0.7c0.31,0,0.58,0.13,0.76,0.28l-0.2,0.26
							c-0.17-0.13-0.34-0.22-0.56-0.22c-0.31,0-0.45,0.17-0.45,0.35c0,0.23,0.27,0.32,0.55,0.43c0.35,0.13,0.75,0.28,0.75,0.74
							c0,0.4-0.32,0.73-0.9,0.73c-0.35,0-0.68-0.15-0.92-0.34L98.65,116.7z"/>
						<path class="st5" d="M101.56,116.68c0.16,0,0.3,0.13,0.3,0.32c0,0.18-0.14,0.31-0.3,0.31c-0.17,0-0.3-0.13-0.3-0.31
							C101.26,116.81,101.39,116.68,101.56,116.68z"/>
						<path class="st5" d="M103.32,116.68c0.16,0,0.3,0.13,0.3,0.32c0,0.18-0.14,0.31-0.3,0.31c-0.17,0-0.3-0.13-0.3-0.31
							C103.02,116.81,103.16,116.68,103.32,116.68z"/>
					</g>
				</g>
			</g>
			<g>
				<g>
					<g>
						<path class="st4" d="M67.5,253.3c0,0-2.26-2.12-0.74-10.14c1.52-8.02,5.38-15.73,3.48-24.43
							c-1.89-8.71-16.73-30.65-16.77-32.11c-0.05-1.46-4.58,25.53,3.09,36.17c7.67,10.63,8.59,14.32,8.25,19.91
							c-0.34,5.59,0.08,10.1,0.92,11.4L67.5,253.3z"/>
						<path class="st14" d="M66.1,237.16c-0.89,3.58-1.43,12.55-0.01,14.7c0.13,0.2,0.32,0.09,0.56-0.28
							c-0.43-1.48-0.72-4.08,0.1-8.42c1.52-8.02,5.38-15.73,3.48-24.43c-1.89-8.71-16.73-30.65-16.77-32.11
							c0,0,2.24,18.29,9.76,30.87C68.62,226.5,66.99,233.58,66.1,237.16z"/>
					</g>
					<g>
						<path class="st4" d="M70.21,252.74c0,0-4.36-10.88,3.03-20.3c7.39-9.42,19.2-21.52,19.43-26.31c0,0,3.04,22.75-6.58,29.19
							c-9.61,6.44-16.35,7.47-14.69,17.38L70.21,252.74z"/>
						<path class="st14" d="M80.58,230.75c-10.72,7.8-11.6,16.79-9.93,20.96c0.13,0.32,0.37,0.52,0.7,0.63
							c-1.44-9.56,5.25-10.65,14.74-17.01c9.61-6.44,6.58-29.19,6.58-29.19S91.3,222.95,80.58,230.75z"/>
					</g>
					<g>
						<path class="st4" d="M63.04,252.99c0,0,1.4-5.76,0.65-11.98c-0.74-6.22-7.24-9.72-13.31-16.29
							c-3.12-3.38-4.05-21.25-2.11-22.92c0,0-10.72,12.99-9.06,22.5c1.65,9.51,19.14,15.69,20.76,20.29
							c1.62,4.6,1.48,8.45,1.48,8.45L63.04,252.99z"/>
						<g>
							<path class="st14" d="M44.65,206.92c-3.54,9.59,0.09,21.21,11.86,28.43c8.66,5.31,5.9,16.36,5.9,16.36l1.42-4.36
								c0.13-1.88,0.14-4.08-0.13-6.34c-0.74-6.22-7.24-9.72-13.31-16.29c-3.01-3.26-3.98-20-2.31-22.67
								C47.59,202.67,46.2,204.46,44.65,206.92z"/>
							<path class="st14" d="M48.08,202.05c0.12-0.15,0.19-0.24,0.19-0.24C48.2,201.86,48.14,201.95,48.08,202.05z"/>
						</g>
					</g>
					<g>
						<path class="st4" d="M72.45,252.27c0,0,2.51-9.32,8.73-10.58c6.21-1.25,13.35-10.44,13.73-12.24
							C94.91,229.46,93.86,246.77,72.45,252.27z"/>
						<path class="st14" d="M80.82,244.78c-3.81,1.9-5.39,4.46-5.95,6.79c19.06-6.13,20.04-22.11,20.04-22.11
							c-0.08,0.36-0.42,1.01-0.97,1.82C92.07,234.55,87.54,241.41,80.82,244.78z"/>
					</g>
				</g>
				<path class="st6" d="M85.89,248.84H53.4l3.86,24.27c0.29,1.84,1.88,3.2,3.74,3.2h17.29c1.86,0,3.45-1.35,3.74-3.2L85.89,248.84z
					"/>
				<polygon class="st15" points="85.26,252.85 85.89,248.84 53.4,248.84 54.04,252.85 				"/>
				<path class="st15" d="M78.02,248.84l-3.86,24.27c-0.29,1.84-1.88,3.2-3.74,3.2h7.87c1.86,0,3.45-1.35,3.74-3.2l3.86-24.27H78.02
					z"/>
			</g>
			<g>
				<rect x="163.16" y="205.55" class="st6" width="146.86" height="29.86"/>
				<rect x="163.16" y="205.55" class="st13" width="146.86" height="7.25"/>
				<polygon class="st16" points="175.93,205.55 189.33,205.55 185.74,212.81 172.33,212.81 				"/>
				<polygon class="st16" points="206.13,205.55 219.53,205.55 215.94,212.81 202.54,212.81 				"/>
				<polygon class="st16" points="236.33,205.55 249.73,205.55 246.14,212.81 232.74,212.81 				"/>
				<polygon class="st16" points="266.53,205.55 279.92,205.55 276.33,212.81 262.93,212.81 				"/>
				<polygon class="st16" points="310.02,205.55 310.02,205.76 306.52,212.81 293.13,212.81 296.73,205.55 				"/>
				<rect x="181.44" y="235.42" class="st4" width="10.35" height="40.83"/>
				<rect x="189.44" y="235.42" class="st14" width="2.35" height="40.83"/>
				<rect x="282.19" y="235.42" class="st4" width="10.35" height="40.83"/>
				<rect x="289.48" y="235.42" class="st14" width="3.06" height="40.83"/>
				<rect x="181.44" y="235.39" class="st14" width="10.35" height="5.14"/>
				<rect x="282.19" y="235.39" class="st14" width="10.35" height="5.14"/>
				<rect x="181.44" y="200.89" class="st4" width="10.35" height="4.64"/>
				<rect x="189.44" y="200.89" class="st14" width="2.35" height="4.64"/>
				<rect x="282.19" y="200.89" class="st4" width="10.35" height="4.64"/>
				<rect x="289.48" y="200.89" class="st14" width="3.06" height="4.64"/>
				<rect x="181.44" y="204.95" class="st14" width="10.35" height="0.58"/>
				<rect x="282.19" y="204.95" class="st14" width="10.35" height="0.58"/>
				<g>
					<g>
						<polygon class="st3" points="189.33,205.55 174.52,235.42 163.16,235.42 163.16,231.3 175.93,205.55 						"/>
						<polygon class="st3" points="206.13,205.55 191.32,235.42 204.72,235.42 219.53,205.55 						"/>
						<polygon class="st3" points="249.73,205.55 234.92,235.42 221.52,235.42 236.33,205.55 						"/>
						<polygon class="st3" points="279.92,205.55 265.12,235.42 251.72,235.42 266.53,205.55 						"/>
						<polygon class="st3" points="296.73,205.55 281.92,235.42 295.31,235.42 310.02,205.76 						"/>
					</g>
				</g>
				<g>
					<g>
						<polygon class="st7" points="189.33,205.55 185.74,212.81 172.33,212.81 175.93,205.55 						"/>
						<polygon class="st7" points="219.53,205.55 215.94,212.81 202.54,212.81 206.13,205.55 						"/>
						<polygon class="st7" points="249.73,205.55 246.14,212.81 232.74,212.81 236.33,205.55 						"/>
						<polygon class="st7" points="279.92,205.55 276.33,212.81 262.93,212.81 266.53,205.55 						"/>
						<polygon class="st7" points="310.02,205.76 306.52,212.81 293.13,212.81 296.73,205.55 						"/>
					</g>
				</g>
				<linearGradient id="SVGID_1_" gradientUnits="userSpaceOnUse" x1="237.3719" y1="244.1499" x2="237.3719" y2="220.0956">
					<stop  offset="0" style="stop-color:#FFFFFF"/>
					<stop  offset="1" style="stop-color:#FFFFFF;stop-opacity:0"/>
				</linearGradient>
				<rect x="167.25" y="218.47" class="st17" width="140.24" height="14.94"/>
				
					<ellipse transform="matrix(0.987 -0.1606 0.1606 0.987 -28.8105 32.4606)" class="st6" cx="186.35" cy="194.41" rx="9.23" ry="9.23"/>
				<path class="st3" d="M190.53,194.41c0-2.31-1.87-4.18-4.18-4.18c-2.31,0-4.18,1.87-4.18,4.18c0,2.31,1.87,4.18,4.18,4.18
					C188.66,198.59,190.53,196.72,190.53,194.41z"/>
				
					<ellipse transform="matrix(0.987 -0.1606 0.1606 0.987 -27.4993 48.6793)" class="st6" cx="287.31" cy="194.41" rx="9.23" ry="9.23"/>
				<path class="st3" d="M291.49,194.41c0-2.31-1.87-4.18-4.18-4.18c-2.31,0-4.18,1.87-4.18,4.18c0,2.31,1.87,4.18,4.18,4.18
					C289.62,198.59,291.49,196.72,291.49,194.41z"/>
			</g>
			<g>
				<path class="st6" d="M365.66,273.08h-46.77l7.15-17.34v-0.01l2.88-7l0.79-1.92l1.29-3.12l0.26-0.64l2.88-7l0.53-1.27l5.1-12.38
					c0.92-2.23,4.08-2.23,5,0l5.1,12.38l0.53,1.27l2.88,7l0.26,0.64l1.29,3.12l0.79,1.92l2.88,7v0.01L365.66,273.08z"/>
				<polygon class="st13" points="321.96,265.65 318.89,273.08 365.67,273.08 362.6,265.65 				"/>
				<rect x="315.15" y="268.64" class="st4" width="53.57" height="7.57"/>
				<rect x="357.15" y="268.64" class="st14" width="11.57" height="7.57"/>
				<g>
					<path class="st13" d="M363.82,268.63h-6.62l-5.31-12.89v-0.01l-2.88-7l-0.79-1.92l-1.29-3.12l-0.26-0.64l-2.88-7l-0.53-1.27
						l-4.29-10.42l0.8-1.96c0.92-2.23,4.08-2.23,5,0l5.1,12.38l0.53,1.27l2.88,7l0.26,0.64l1.29,3.12l0.79,1.92l2.88,7v0.01
						L363.82,268.63z"/>
					<g>
						<polygon class="st3" points="353.28,243.05 331.27,243.05 334.15,236.06 350.4,236.06 						"/>
						<polygon class="st3" points="358.51,255.73 358.51,255.74 326.04,255.74 326.04,255.73 328.92,248.73 355.63,248.73 						"/>
						<polygon class="st7" points="353.28,243.05 346.67,243.05 343.79,236.06 350.4,236.06 						"/>
						<polygon class="st7" points="358.51,255.73 358.51,255.74 351.89,255.74 351.89,255.73 349.01,248.73 355.63,248.73 						"/>
					</g>
				</g>
			</g>
			<g>
				<path class="st2" d="M67.52,103.02c3.49,0,6.53-2.54,7.01-6c0.08-0.62,0.13-1.25,0.13-1.9c0-7.71-6.25-13.96-13.96-13.96
					c-0.32,0-0.63,0.01-0.94,0.03c-0.64-7.6-7.01-13.57-14.77-13.57c-8.19,0-14.83,6.64-14.83,14.83c0,0.36,0.02,0.72,0.04,1.08
					c-2.32-1.3-5.03-1.99-7.91-1.86c-7.45,0.34-13.57,6.3-14.1,13.74c0,0.06-0.01,0.12-0.01,0.18c-0.24,4.04,3.03,7.44,7.08,7.44
					H67.52z"/>
				<path class="st2" d="M400.65,113.98c11.04,0,11.65-16.61,0.62-17.15c-0.3-0.01-0.6-0.02-0.91-0.02c-1.97,0-3.86,0.31-5.64,0.88
					c-1.48-8.99-9.28-15.85-18.69-15.85c-9.62,0-17.55,7.17-18.77,16.45c-2.28-1.09-4.84-1.71-7.54-1.71
					c-1.51,0-2.97,0.19-4.37,0.55c-9.65,2.49-7.63,16.85,2.34,16.85H400.65z"/>
				<path class="st2" d="M268.09,32.13c11.03,0,11.65-16.61,0.62-17.14c-0.3-0.01-0.6-0.02-0.91-0.02c-1.97,0-3.86,0.31-5.64,0.88
					C260.69,6.86,252.89,0,243.49,0c-9.61,0-17.55,7.17-18.77,16.45c-2.28-1.09-4.84-1.71-7.53-1.71c-1.51,0-2.97,0.19-4.37,0.55
					c-9.65,2.48-7.62,16.84,2.34,16.84H268.09z"/>
				<circle class="st6" cx="92.4" cy="36.37" r="26.45"/>
				<path class="st15" d="M92.62,9.92c7.19,4.73,11.95,12.87,11.95,22.12c0,14.61-11.84,26.45-26.45,26.45c-0.07,0-0.14,0-0.22-0.01
					c4.17,2.74,9.15,4.34,14.51,4.34c14.61,0,26.45-11.84,26.45-26.45C118.86,21.83,107.13,10.04,92.62,9.92z"/>
			</g>
		</g>
	</g>
</g>
<g id="DESIGNED_BY_FREEPIK">
</g>
</svg>
