<?xml version="1.0" encoding="utf-8"?>
<!-- Generator: Adobe Illustrator 24.0.1, SVG Export Plug-In . SVG Version: 6.00 Build 0)  -->
<svg version="1.1" id="Layer_1" xmlns="http://www.w3.org/2000/svg" xmlns:xlink="http://www.w3.org/1999/xlink" x="0px" y="0px"
	 viewBox="0 0 512 512" style="enable-background:new 0 0 512 512;" xml:space="preserve">
<style type="text/css">
	.st0{fill:#53CDE2;}
</style>
<title>034 - Empathy</title>
<desc>Created with Sketch.</desc>
<g id="Page-1">
	<g id="_x30_34---Empathy" transform="translate(0.000000, -1.000000)">
		<path id="Shape" class="st0" d="M48,424.1c-0.9,7.8,0.1,15.6,2.9,22.9c3.8,13.6,16.1,23.1,30.2,23.3c2.3,0,4.7-0.2,7-0.7
			c24.3-5.9,48.2-13.1,71.7-21.5c19.2,11.3,31.3,45.6,34.4,58.4c0.9,3.8,4.4,6.5,8.3,6.5l213.6-0.6c2.7,0,5.2-1.3,6.8-3.5
			c1.6-2.2,2.1-5,1.3-7.6c-2.1-5.8-5-11.3-8.6-16.3c-2-2.9-3.8-5.9-5.4-9c-3.8-7.9-7.1-16.1-9.6-24.4c-4.9-16.5-8.2-33.4-10-50.5
			c-1.6-13.4-1.3-27,0.9-40.3c0.6-3-0.6-6.1-2.9-8.1c-2.4-2-5.6-2.5-8.5-1.4c-2.9,1.1-4.9,3.7-5.4,6.7c-2.5,14.9-2.8,30.1-1,45.2
			c1.9,18.1,5.5,36,10.7,53.4c2.8,9.2,6.3,18.2,10.6,26.8c1.9,3.8,4.1,7.5,6.5,11l0.6,0.9l-193,0.6c-5.7-20.2-15.9-38.9-30-54.5
			c2.2-0.8,4.3-1.5,6.3-2.2c6.4-2.2,11.2-3.9,13.7-4.7c36.5-11.5,54.8-28.1,54.3-49.4c0-2.3-0.9-4.5-2.6-6c-1.6-1.6-3.9-2.4-6.1-2.3
			c-4.7,0.1-8.4,4-8.3,8.7c0.2,8.8-7,21.6-42.3,32.7c-2.5,0.8-7.5,2.6-14.1,4.9c-6.1,2.1-13.6,4.8-21.8,7.6
			c-24,8.7-48.4,16.1-73.2,22.1c-8,1.5-15.7-3.5-17.5-11.4c-1.8-4.8-2.6-9.9-2.1-15.1c0.2-1.8,0.6-3.5,1-5.3
			c1.8-5.9,2-12.2,0.8-18.2c-2.4-7.8-8.2-14.2-15.7-17.5l-1.8-1c0.9-1.9,2-3.6,3.3-5.3c1.4-1.8,2-4.1,1.7-6.4
			c-0.3-2.3-1.5-4.3-3.4-5.7c-2-1.5-6.9-5.2-10.4-8c0.4-0.8,0.9-1.7,1.4-2.5c1.3-2.3,2.8-5,4.3-8c2.7-6,3.5-12.6,2.3-19.1
			c-2-10.5-11.9-15.6-19.2-19.3c-2.5-1.2-4.8-2.5-7-4.1c-1.8-1.2-3.5-2.6-5.1-4.1c0-1.3,1.3-4.4,7.9-12.4
			c15.2-19.7,28.3-40.9,38.9-63.4c2-3.5,3.2-7.5,3.3-11.6c-0.9-8.6-5.4-16.4-12.5-21.3c-3.4-3.2-6.7-6.1-7.1-8.8
			c0-2.1,0.5-4.1,1.4-6c1.4-3.7,3-7.4,4.7-11c3.5-7.2,6.2-14.7,8.3-22.4l0.7-3c1.8-8.7,4.2-17.4,7.1-25.8
			c6.7-18.6,17.1-35.6,30.5-50c16.5-17.5,41.4-29.3,76.3-36.4c26.3-5.8,53-9.6,79.9-11.5c34.1-2.1,68.2,5.8,97.9,22.7
			c2.7,1.5,5.9,1.4,8.5-0.2c2.6-1.6,4.2-4.4,4.1-7.5c-0.1-3-1.7-5.8-4.4-7.3c-32.5-18.4-69.7-27-107-24.9
			c-27.7,1.9-55.2,5.9-82.3,11.8c-38.4,7.7-66.3,21.3-85.3,41.4c-15.1,16.1-26.7,35.1-34.1,55.8c-3.1,9.1-5.7,18.4-7.7,27.9l-0.7,3
			c-1.8,6.6-4.2,13.1-7.2,19.3c-1.8,4-3.5,7.9-5,11.9c-2,4.5-2.8,9.4-2.3,14.3c1.7,7.6,6.1,14.4,12.4,19c4.2,3.8,6.9,6.5,6.9,9
			c-0.3,1.3-0.8,2.5-1.5,3.7c-10.2,21.6-22.7,41.9-37.3,60.8c-6.1,7.5-12.5,16.2-11.2,25c1.8,6.7,6.3,12.4,12.3,15.9
			c2.8,1.9,5.8,3.7,8.9,5.1c3.7,1.9,9.8,5,10.2,7.3c0.6,2.9,0.2,5.9-0.9,8.6c-1.3,2.7-2.6,5-3.7,7c-3.3,5.9-8.3,14.8-0.5,21.5
			c1.8,1.6,5,4.1,7.9,6.3c-2.1,3.8-3.1,8.1-2.7,12.4c0.5,3.3,2.3,6.3,5,8.3c1.9,1.4,3.9,2.6,6,3.7c5,2.9,7,4.2,7.6,6.8
			c0.5,3.5,0.1,7-0.9,10.4C48.8,419.6,48.3,421.8,48,424.1z"/>
		<path id="Shape_1_" class="st0" d="M95.3,152.8l0.9-3.7c1.5-7.1,3.4-14.2,5.7-21.1c5.1-14.2,13.1-27.3,23.4-38.4
			c11.1-10.4,24.6-17.9,39.3-21.6c2.9-0.9,5.1-3.3,5.8-6.2c0.7-3-0.3-6.1-2.5-8.2c-2.2-2.1-5.4-2.8-8.3-1.9
			c-17.6,4.6-33.7,13.6-46.8,26.2c-11.9,12.8-21.1,27.8-27,44.2c-2.6,7.6-4.7,15.3-6.3,23.1l-0.9,3.7c-0.8,3,0.1,6.2,2.4,8.3
			c2.2,2.1,5.5,2.9,8.4,2C92.5,158.4,94.7,155.9,95.3,152.8L95.3,152.8z"/>
		<circle id="Oval" class="st0" cx="76.8" cy="180.2" r="8.5"/>
		<path id="Shape_2_" class="st0" d="M434.9,263.3l49.3-49.7l1.6-1.6l0.1-0.1c0.2-0.2,0.4-0.4,0.5-0.6
			c34.6-37.3,33.7-95.2-2.2-131.3c-35.5-36.3-93.6-37.3-130.3-2.3c-0.8,0.7-1.6,1.5-2.3,2.3c-0.1,0.1-0.1,0.1-0.1,0.2l-89.2,90
			c-10.2,10.3-10.2,26.9,0,37.2c4.9,4.9,11.5,7.7,18.4,7.7l85.5,86.3c3.6,3.7,3.6,9.5,0,13.1c-1.7,1.7-4,2.7-6.4,2.7
			c-2.4,0-4.7-1-6.4-2.7L249.3,209.6c-3.3-3.3-8.7-3.4-12.1-0.1c-3.3,3.3-3.4,8.7-0.1,12.1l103.9,104.9c3.6,3.7,3.6,9.5,0,13.2
			c-3.6,3.5-9.2,3.5-12.8,0L193.1,203.2c-0.6-0.6-1.2-1.3-1.8-1.9c-28.4-30.6-27.6-78.1,1.8-107.7C207.5,79.1,227,71,247.4,71
			s39.9,8.2,54.2,22.7c2.1,2.2,5.3,3.1,8.3,2.4c3-0.8,5.3-3.1,6.1-6.1c0.8-3-0.1-6.2-2.3-8.3c-17.5-17.7-41.4-27.7-66.3-27.7
			s-48.8,10-66.3,27.7c-35.9,36.1-36.9,94.1-2.2,131.3c0.1,0.1,0.1,0.2,0.1,0.2l2,2l0.1,0.1l135.1,136.3c4.9,5,11.6,7.7,18.5,7.7
			c7,0,13.6-2.8,18.5-7.7c4.6-4.7,7.3-11,7.5-17.5c6.6-0.2,12.8-3,17.4-7.6c4.6-4.7,7.3-11,7.5-17.5c6.6-0.2,12.8-3,17.4-7.7
			c4.6-4.7,7.3-10.9,7.5-17.5c6.6-0.3,12.8-3,17.4-7.7C431.4,272.5,433.9,268.1,434.9,263.3z M274.3,182.1L365.6,90
			c30-28.6,77.5-27.8,106.5,1.9c29.5,29.6,30.3,77.1,1.8,107.7l-0.5,0.5l-42.3,42.7c-0.9-1.4-2-2.7-3.1-3.8l-80.1-80.8l7.5-7.6
			c10.8,10.4,24.8,16.8,39.8,18.1c17.3,0.3,33.9-7,45.3-20.1c2.1-2.2,3-5.3,2.2-8.3c-0.8-2.9-3.1-5.2-6.1-6c-3-0.8-6.1,0.1-8.2,2.3
			c-8.1,9.4-19.8,14.9-32.2,15.1c-13.3-1.8-25.4-8.4-34.1-18.6c-1.5-1.9-3.8-3-6.2-3.1c-2.4-0.1-4.8,0.8-6.5,2.5L329.9,152
			l-24.9,25.1l-17.9,18c-1.7,1.7-4,2.7-6.4,2.7c-2.4,0-4.7-1-6.4-2.7C270.9,191.6,270.8,185.8,274.3,182.1z M390.9,289.3
			c-3.6,3.5-9.2,3.5-12.8,0l-80.2-80.9c0.4-0.4,0.9-0.7,1.3-1.1l11.8-11.9l79.8,80.6l0.1,0.1C394.5,279.8,394.5,285.6,390.9,289.3z
			 M403.1,264.2L323,183.3l12.9-13l80,80.7c3.6,3.7,3.6,9.5,0,13.1C412.3,267.6,406.7,267.6,403.1,264.2z"/>
	</g>
</g>
</svg>
