<?xml version="1.0" encoding="utf-8"?>
<!-- Generator: Adobe Illustrator 24.0.1, SVG Export Plug-In . SVG Version: 6.00 Build 0)  -->
<svg version="1.1" id="Capa_1" xmlns="http://www.w3.org/2000/svg" xmlns:xlink="http://www.w3.org/1999/xlink" x="0px" y="0px"
	 viewBox="0 0 512 512" style="enable-background:new 0 0 512 512;" xml:space="preserve">
<style type="text/css">
	.st0{fill:#53CDE2;}
</style>
<g>
	<g>
		<g>
			<path class="st0" d="M322.7,355.5c56.2-25.5,92.5-81.8,92.5-143.5c0-33.3-10.3-65.1-29.7-92c-2.4-3.3-7-4.1-10.4-1.7
				c-3.3,2.4-4.1,7-1.7,10.4c17.6,24.4,26.9,53.2,26.9,83.3c0,55.9-32.9,106.9-83.8,129.9c-9.9,4.5-16.3,14.3-16.3,25.1v33.6h-85.2
				V367c0-10.7-6.3-20.5-16.1-25c-51.3-23.2-84.2-74.5-84-130.7c0.3-78.3,64.3-142,142.6-142c34.4,0,67.6,12.4,93.6,35
				c3.1,2.7,7.8,2.4,10.5-0.7c2.7-3.1,2.4-7.8-0.7-10.5c-28.6-24.9-65.3-38.6-103.3-38.6c-42,0-81.5,16.3-111.1,45.8
				c-29.7,29.6-46.1,69-46.3,110.9c-0.3,62.1,36.1,118.7,92.7,144.3c4.4,2,7.3,6.5,7.3,11.4v33.6h-2.6c-9.6,0-17.4,7.8-17.4,17.4v12
				c0,9.2,7.1,16.7,16.1,17.4l6.3,39c2.2,13.4,13.5,23.1,27.1,23.1h10.6c4.1,0,7.4-3.3,7.4-7.4s-3.3-7.4-7.4-7.4h-10.6
				c-6.2,0-11.4-4.5-12.4-10.6l-5.9-36.6H223c4.1,0,7.4-3.3,7.4-7.4c0-4.1-3.3-7.4-7.4-7.4h-25.4c-1.4,0-2.6-1.2-2.6-2.6v-12
				c0-1.4,1.2-2.6,2.6-2.6h120c1.4,0,2.6,1.2,2.6,2.6v12c0,1.4-1.2,2.6-2.6,2.6h-60c-4.1,0-7.4,3.3-7.4,7.4c0,4.1,3.3,7.4,7.4,7.4
				H304l-5.9,36.6c-1,6.1-6.2,10.6-12.4,10.6H275c-4.1,0-7.4,3.3-7.4,7.4s3.3,7.4,7.4,7.4h10.6c13.5,0,24.9-9.7,27.1-23.1l6.3-39
				c9-0.7,16.1-8.2,16.1-17.4v-12c0-9.6-7.8-17.4-17.4-17.4h-2.6V367C315.1,362.1,318.1,357.5,322.7,355.5L322.7,355.5z"/>
			<path class="st0" d="M285.6,512H275c-5.5,0-9.9-4.4-9.9-9.9s4.4-9.9,9.9-9.9h10.6c5,0,9.2-3.6,10-8.5l5.4-33.7h-43.4
				c-5.5,0-9.9-4.4-9.9-9.9c0-5.5,4.4-9.9,9.9-9.9h60c0.1,0,0.1,0,0.1-0.1v-12c0-0.1-0.1-0.1-0.1-0.1h-120c0,0-0.1,0-0.1,0.1v12
				c0,0.1,0,0.1,0.1,0.1H223c5.5,0,9.9,4.4,9.9,9.9c0,5.5-4.4,9.9-9.9,9.9h-8.7l5.4,33.7c0.8,4.9,5,8.5,10,8.5h10.6
				c5.5,0,9.9,4.4,9.9,9.9s-4.4,9.9-9.9,9.9h-10.6c-14.8,0-27.2-10.6-29.5-25.2l-6-37.2c-9.4-1.7-16.4-9.9-16.4-19.6v-12
				c0-11,8.9-19.9,19.9-19.9h0.1V367c0-4-2.3-7.6-5.9-9.2c-57.5-26-94.5-83.5-94.2-146.6c0.2-42.6,16.9-82.7,47.1-112.7
				C174.9,68.6,215,52,257.7,52c38.6,0,75.9,13.9,104.9,39.2c2,1.7,3.2,4.1,3.4,6.8c0.2,2.6-0.7,5.2-2.4,7.2c-1.7,2-4.1,3.2-6.8,3.4
				c-2.6,0.2-5.2-0.7-7.2-2.4c-25.5-22.2-58.1-34.4-91.9-34.4c-76.9,0-139.8,62.6-140.2,139.5c-0.3,55.3,32.1,105.7,82.5,128.4
				c10.6,4.8,17.5,15.5,17.5,27.2v31.2h80.2V367c0-11.7,7-22.4,17.7-27.3c50-22.7,82.3-72.8,82.3-127.7c0-29.6-9.1-57.9-26.4-81.9
				c-1.5-2.1-2.2-4.8-1.7-7.4c0.4-2.6,1.8-4.9,4-6.5c4.4-3.2,10.6-2.2,13.8,2.2c19.7,27.3,30.2,59.7,30.2,93.5
				c0,62.6-36.9,119.8-93.9,145.7h0c-3.7,1.7-6.1,5.3-6.1,9.3v31.2h0.1c11,0,19.9,8.9,19.9,19.9v12c0,9.7-7.1,17.9-16.4,19.6
				l-6,37.2C312.8,501.4,300.4,512,285.6,512z M275,497.1c-2.7,0-5,2.2-5,5s2.2,5,5,5h10.6c12.3,0,22.7-8.8,24.6-21l6.6-40.9
				l1.9-0.1c7.7-0.6,13.8-7.1,13.8-14.9v-12c0-8.3-6.7-15-15-15h-5.1V367c0-5.9,3.5-11.3,9-13.8h0c55.3-25.1,91-80.5,91-141.2
				c0-32.8-10.1-64.1-29.2-90.6c-1.6-2.2-4.7-2.7-6.9-1.1c-1.1,0.8-1.8,1.9-2,3.2c-0.2,1.3,0.1,2.6,0.9,3.7
				c17.9,24.8,27.3,54.1,27.3,84.8c0,56.8-33.5,108.7-85.2,132.2c-9,4.1-14.8,13-14.8,22.8v36.1h-90.1V367c0-9.8-5.7-18.7-14.6-22.7
				c-52.2-23.6-85.7-75.7-85.4-133c0.4-79.7,65.4-144.5,145.1-144.5c35,0,68.8,12.6,95.2,35.6c1,0.9,2.3,1.3,3.6,1.2
				c1.3-0.1,2.5-0.7,3.4-1.7c0.9-1,1.3-2.3,1.2-3.6c-0.1-1.3-0.7-2.5-1.7-3.4c-28.2-24.5-64.3-38-101.7-38
				c-41.3,0-80.2,16-109.4,45.1c-29.2,29.1-45.4,67.9-45.6,109.2c-0.3,61.1,35.5,116.9,91.3,142c5.3,2.4,8.8,7.8,8.8,13.7v36.1h-5.1
				c-8.2,0-15,6.7-15,15v12c0,7.8,6.1,14.3,13.8,14.9l1.9,0.1l6.6,40.9c2,12.2,12.3,21,24.6,21h10.6c2.7,0,5-2.2,5-5s-2.2-5-5-5
				h-10.6c-7.4,0-13.7-5.3-14.9-12.7l-6.4-39.5H223c2.7,0,5-2.2,5-5c0-2.7-2.2-5-5-5h-25.4c-2.8,0-5.1-2.3-5.1-5.1v-12
				c0-2.8,2.3-5.1,5.1-5.1h120c2.8,0,5.1,2.3,5.1,5.1v12c0,2.8-2.3,5.1-5.1,5.1h-60c-2.7,0-5,2.2-5,5c0,2.7,2.2,5,5,5h49.2
				l-6.4,39.5c-1.2,7.3-7.4,12.7-14.9,12.7H275z"/>
		</g>
		<g>
			<path class="st0" d="M166.2,252v44c0,4.1,3.3,7.4,7.4,7.4h168.1c4.1,0,7.4-3.3,7.4-7.4v-44c0-26.2-21.3-47.4-47.4-47.4h-5.5
				c11.6-10.5,18.9-25.7,18.9-42.6c0-31.7-25.8-57.4-57.4-57.4s-57.4,25.8-57.4,57.4c0,16.9,7.3,32.1,18.9,42.6h-5.5
				C187.5,204.6,166.2,225.8,166.2,252L166.2,252z M215.1,162c0-23.5,19.1-42.6,42.6-42.6c23.5,0,42.6,19.1,42.6,42.6
				c0,23.5-19.1,42.6-42.6,42.6C234.2,204.6,215.1,185.4,215.1,162z M301.7,219.4c18,0,32.6,14.6,32.6,32.6v36.6h-27.2V276
				c0-4.1-3.3-7.4-7.4-7.4c-4.1,0-7.4,3.3-7.4,7.4v12.6h-69.2V276c0-4.1-3.3-7.4-7.4-7.4c-4.1,0-7.4,3.3-7.4,7.4v12.6h-27.2V252
				c0-18,14.6-32.6,32.6-32.6H301.7z"/>
			<path class="st0" d="M341.7,305.9H173.6c-5.5,0-9.9-4.4-9.9-9.9v-44c0-27.4,22.2-49.7,49.5-49.9c-9.9-11-15.5-25.3-15.5-40.1
				c0-33,26.9-59.9,59.9-59.9s59.9,26.9,59.9,59.9c0,14.8-5.6,29.2-15.5,40.1c27.3,0.2,49.5,22.5,49.5,49.9v44
				C351.6,301.5,347.2,305.9,341.7,305.9z M213.6,207c-24.8,0-45,20.2-45,45v44c0,2.7,2.2,5,5,5h168.1c2.7,0,5-2.2,5-5v-44
				c0-24.8-20.2-45-45-45h-11.9l4.8-4.3c11.5-10.4,18.1-25.3,18.1-40.8c0-30.3-24.7-55-55-55c-30.3,0-55,24.7-55,55
				c0,15.5,6.6,30.3,18.1,40.8l4.8,4.3H213.6z M336.7,291.1h-32.1V276c0-2.7-2.2-5-5-5c-2.7,0-5,2.2-5,5v15.1h-74.1V276
				c0-2.7-2.2-5-5-5c-2.7,0-5,2.2-5,5v15.1h-32.1V252c0-19.3,15.7-35.1,35.1-35.1h88c19.3,0,35.1,15.7,35.1,35.1V291.1z
				 M309.6,286.1h22.2V252c0-16.6-13.5-30.1-30.1-30.1h-88c-16.6,0-30.1,13.5-30.1,30.1v34.1h22.2V276c0-5.5,4.4-9.9,9.9-9.9
				s9.9,4.4,9.9,9.9v10.1h64.2V276c0-5.5,4.4-9.9,9.9-9.9c5.5,0,9.9,4.4,9.9,9.9V286.1z M257.7,207c-24.9,0-45.1-20.2-45.1-45.1
				s20.2-45.1,45.1-45.1c24.9,0,45.1,20.2,45.1,45.1S282.5,207,257.7,207z M257.7,121.8c-22.1,0-40.1,18-40.1,40.1
				s18,40.1,40.1,40.1c22.1,0,40.1-18,40.1-40.1S279.8,121.8,257.7,121.8z"/>
		</g>
		<g>
			<path class="st0" d="M257.7,37.3c4.1,0,7.4-3.3,7.4-7.4v-20c0-4.1-3.3-7.4-7.4-7.4c-4.1,0-7.4,3.3-7.4,7.4v20
				C250.2,34,253.6,37.3,257.7,37.3z"/>
			<path class="st0" d="M257.7,39.8c-5.5,0-9.9-4.4-9.9-9.9v-20c0-5.5,4.4-9.9,9.9-9.9c5.5,0,9.9,4.4,9.9,9.9v20
				C267.6,35.4,263.1,39.8,257.7,39.8z M257.7,5c-2.7,0-5,2.2-5,5v20c0,2.7,2.2,5,5,5c2.7,0,5-2.2,5-5v-20
				C262.6,7.2,260.4,5,257.7,5z"/>
		</g>
		<g>
			<path class="st0" d="M160.2,58c1.4,2.4,3.9,3.7,6.4,3.7c1.3,0,2.5-0.3,3.7-1c3.6-2.1,4.8-6.6,2.7-10.1l-10-17.3
				c-2.1-3.6-6.6-4.8-10.1-2.7c-3.6,2.1-4.8,6.6-2.7,10.1L160.2,58z"/>
			<path class="st0" d="M166.6,64.2c-3.5,0-6.8-1.9-8.6-5l-10-17.3c-2.7-4.7-1.1-10.8,3.6-13.5c2.3-1.3,5-1.7,7.5-1
				c2.6,0.7,4.7,2.3,6,4.6l10,17.3c2.7,4.7,1.1,10.8-3.6,13.5C170.1,63.7,168.4,64.2,166.6,64.2z M162.3,56.8
				c0.9,1.5,2.5,2.5,4.3,2.5c0.9,0,1.7-0.2,2.5-0.7c2.4-1.4,3.2-4.4,1.8-6.8l-10-17.3c-0.7-1.1-1.7-2-3-2.3
				c-1.3-0.3-2.6-0.2-3.8,0.5c-2.4,1.4-3.2,4.4-1.8,6.8L162.3,56.8z"/>
		</g>
		<g>
			<path class="st0" d="M78.9,117.4l17.3,10c1.2,0.7,2.4,1,3.7,1c2.6,0,5.1-1.3,6.4-3.7c2.1-3.6,0.8-8.1-2.7-10.1l-17.3-10
				c-3.6-2.1-8.1-0.8-10.1,2.7C74.2,110.8,75.4,115.3,78.9,117.4z"/>
			<path class="st0" d="M100,130.9c-1.7,0-3.4-0.5-4.9-1.3l-17.3-10c-4.7-2.7-6.4-8.8-3.6-13.5c1.3-2.3,3.5-3.9,6-4.6
				c2.6-0.7,5.2-0.3,7.5,1l17.3,10c4.7,2.7,6.4,8.8,3.6,13.5C106.8,129,103.5,130.9,100,130.9z M82.7,106c-0.4,0-0.9,0.1-1.3,0.2
				c-1.3,0.3-2.3,1.2-3,2.3c-1.4,2.4-0.6,5.4,1.8,6.8h0l17.3,10c0.8,0.4,1.6,0.7,2.5,0.7c1.8,0,3.4-0.9,4.3-2.5
				c1.4-2.4,0.6-5.4-1.8-6.8l-17.3-10C84.4,106.2,83.5,106,82.7,106z"/>
		</g>
		<g>
			<path class="st0" d="M83,212c0-4.1-3.3-7.4-7.4-7.4h-20c-4.1,0-7.4,3.3-7.4,7.4s3.3,7.4,7.4,7.4h20C79.7,219.4,83,216.1,83,212z"
				/>
			<path class="st0" d="M75.6,221.9h-20c-5.5,0-9.9-4.4-9.9-9.9s4.4-9.9,9.9-9.9h20c5.5,0,9.9,4.4,9.9,9.9S81.1,221.9,75.6,221.9z
				 M55.6,207c-2.7,0-5,2.2-5,5s2.2,5,5,5h20c2.7,0,5-2.2,5-5s-2.2-5-5-5H55.6z"/>
		</g>
		<g>
			<path class="st0" d="M96.3,296.6l-17.3,10c-3.6,2.1-4.8,6.6-2.7,10.1c1.4,2.4,3.9,3.7,6.4,3.7c1.3,0,2.5-0.3,3.7-1l17.3-10
				c3.6-2.1,4.8-6.6,2.7-10.1C104.4,295.8,99.8,294.5,96.3,296.6z"/>
			<path class="st0" d="M82.7,322.9c-3.5,0-6.8-1.9-8.6-5c-1.3-2.3-1.7-5-1-7.5c0.7-2.6,2.3-4.7,4.6-6l17.3-10c2.3-1.3,5-1.7,7.5-1
				c2.6,0.7,4.7,2.3,6,4.6c2.7,4.7,1.1,10.8-3.6,13.5l-17.3,10C86.1,322.5,84.4,322.9,82.7,322.9z M97.5,298.7l-17.3,10
				c-2.4,1.4-3.2,4.4-1.8,6.8c0.9,1.5,2.5,2.5,4.3,2.5c0.9,0,1.7-0.2,2.5-0.7l17.3-10c2.4-1.4,3.2-4.4,1.8-6.8c-0.7-1.1-1.7-2-3-2.3
				C100,297.9,98.7,298.1,97.5,298.7L97.5,298.7z"/>
		</g>
		<g>
			<path class="st0" d="M345,60.7c1.2,0.7,2.4,1,3.7,1c2.6,0,5.1-1.3,6.4-3.7l10-17.3c2.1-3.6,0.8-8.1-2.7-10.1
				c-3.6-2.1-8.1-0.8-10.1,2.7l-10,17.3C340.2,54.1,341.4,58.7,345,60.7L345,60.7z"/>
			<path class="st0" d="M348.7,64.2c-1.7,0-3.4-0.5-4.9-1.3l0,0c-2.3-1.3-3.9-3.5-4.6-6c-0.7-2.6-0.3-5.2,1-7.5l10-17.3
				c1.3-2.3,3.5-3.9,6-4.6c2.6-0.7,5.2-0.3,7.5,1c4.7,2.7,6.4,8.8,3.6,13.5l-10,17.3C355.5,62.3,352.2,64.2,348.7,64.2z M346.2,58.6
				c0.8,0.4,1.6,0.7,2.5,0.7c1.8,0,3.4-0.9,4.3-2.5l10-17.3c1.4-2.4,0.6-5.4-1.8-6.8c-1.1-0.7-2.5-0.8-3.8-0.5
				c-1.3,0.3-2.3,1.2-3,2.3l-10,17.3c-0.7,1.1-0.8,2.5-0.5,3.8C344.3,56.9,345.1,57.9,346.2,58.6L346.2,58.6z"/>
		</g>
		<g>
			<path class="st0" d="M415.4,128.4c1.3,0,2.5-0.3,3.7-1l17.3-10c3.6-2.1,4.8-6.6,2.7-10.1c-2.1-3.6-6.6-4.8-10.1-2.7l-17.3,10
				c-3.6,2.1-4.8,6.6-2.7,10.1C410.3,127,412.8,128.4,415.4,128.4L415.4,128.4z"/>
			<path class="st0" d="M415.4,130.9c-3.5,0-6.8-1.9-8.6-5c-2.7-4.7-1.1-10.8,3.6-13.5l17.3-10c2.3-1.3,5-1.7,7.5-1
				c2.6,0.7,4.7,2.3,6,4.6c2.7,4.7,1.1,10.8-3.6,13.5l-17.3,10C418.8,130.4,417.1,130.9,415.4,130.9z M432.7,106
				c-0.9,0-1.7,0.2-2.5,0.7l-17.3,10c-2.4,1.4-3.2,4.4-1.8,6.8c0.9,1.5,2.5,2.5,4.3,2.5c0.9,0,1.7-0.2,2.5-0.7l17.3-10
				c2.4-1.4,3.2-4.4,1.8-6.8c-0.7-1.1-1.7-2-3-2.3C433.5,106,433.1,106,432.7,106z"/>
		</g>
		<g>
			<path class="st0" d="M459.7,204.6h-20c-4.1,0-7.4,3.3-7.4,7.4s3.3,7.4,7.4,7.4h20c4.1,0,7.4-3.3,7.4-7.4S463.8,204.6,459.7,204.6
				z"/>
			<path class="st0" d="M459.7,221.9h-20c-5.5,0-9.9-4.4-9.9-9.9s4.4-9.9,9.9-9.9h20c5.5,0,9.9,4.4,9.9,9.9S465.2,221.9,459.7,221.9
				z M439.7,207c-2.7,0-5,2.2-5,5s2.2,5,5,5h20c2.7,0,5-2.2,5-5s-2.2-5-5-5H439.7z"/>
		</g>
		<g>
			<path class="st0" d="M436.4,306.6l-17.3-10c-3.6-2.1-8.1-0.8-10.1,2.7c-2.1,3.6-0.8,8.1,2.7,10.1l17.3,10c1.2,0.7,2.4,1,3.7,1
				c2.6,0,5.1-1.3,6.4-3.7C441.2,313.2,439.9,308.6,436.4,306.6L436.4,306.6z"/>
			<path class="st0" d="M432.7,322.9c-1.7,0-3.4-0.5-4.9-1.3l-17.3-10c-2.3-1.3-3.9-3.5-4.6-6c-0.7-2.6-0.3-5.2,1-7.5
				c1.3-2.3,3.5-3.9,6-4.6c2.6-0.7,5.2-0.3,7.5,1l17.3,10c2.3,1.3,3.9,3.5,4.6,6s0.3,5.2-1,7.5C439.5,321,436.2,322.9,432.7,322.9z
				 M415.4,298.1c-0.4,0-0.9,0.1-1.3,0.2c-1.3,0.3-2.3,1.2-3,2.3c-1.4,2.4-0.6,5.4,1.8,6.8l17.3,10c0.8,0.4,1.6,0.7,2.5,0.7
				c1.8,0,3.4-0.9,4.3-2.5c1.4-2.4,0.6-5.4-1.8-6.8l-17.3-10C417.1,298.3,416.2,298.1,415.4,298.1z"/>
		</g>
	</g>
</g>
</svg>
