<?xml version="1.0" encoding="utf-8"?>
<!-- Generator: Adobe Illustrator 24.0.1, SVG Export Plug-In . SVG Version: 6.00 Build 0)  -->
<svg version="1.1" id="Capa_1" xmlns="http://www.w3.org/2000/svg" xmlns:xlink="http://www.w3.org/1999/xlink" x="0px" y="0px"
	 viewBox="0 0 512 512" style="enable-background:new 0 0 512 512;" xml:space="preserve">
<style type="text/css">
	.st0{fill:#53CDE2;}
</style>
<g>
	<g>
		<g>
			<g>
				<path class="st0" d="M313.7,181.5c-1.5,0-3.1-0.3-4.5-1.1c-3.4-1.7-5.5-5.2-5.5-8.9v-21h-12.1c-11.3,0-20.5-9.2-20.5-20.5V20.6
					c0-11.3,9.2-20.6,20.6-20.6h199.8C502.8,0,512,9.2,512,20.5v109.4c0,11.3-9.2,20.6-20.6,20.6H358.4l-38.7,29
					C317.9,180.8,315.8,181.5,313.7,181.5L313.7,181.5z M291.6,20c-0.3,0-0.6,0.2-0.6,0.6v109.4c0,0.3,0.2,0.5,0.5,0.5h22.1
					c5.5,0,10,4.5,10,10v11l25.4-19c1.7-1.3,3.8-2,6-2h136.4c0.3,0,0.6-0.2,0.6-0.6V20.5c0-0.3-0.2-0.5-0.5-0.5L291.6,20z"/>
			</g>
		</g>
		<g>
			<g>
				<g>
					<path class="st0" d="M450,58.8H333c-5.5,0-10-4.5-10-10s4.5-10,10-10h117c5.5,0,10,4.5,10,10S455.6,58.8,450,58.8z"/>
				</g>
			</g>
			<g>
				<g>
					<path class="st0" d="M450,105.8H333c-5.5,0-10-4.5-10-10s4.5-10,10-10h117c5.5,0,10,4.5,10,10S455.6,105.8,450,105.8z"/>
				</g>
			</g>
		</g>
	</g>
	<g>
		<g>
			<g>
				<g>
					<path class="st0" d="M166,140.3c-38.7,0-70.1-31.5-70.1-70.1S127.3,0,166,0c38.7,0,70.1,31.5,70.1,70.1
						C236.1,108.8,204.7,140.3,166,140.3z M166,20c-27.6,0-50.1,22.5-50.1,50.1c0,27.6,22.5,50.1,50.1,50.1s50.1-22.5,50.1-50.1
						C216.1,42.5,193.6,20,166,20z"/>
				</g>
			</g>
		</g>
		<g>
			<g>
				<g>
					<g>
						<path class="st0" d="M219,310.3c-4.2,0-8-2.7-9.4-6.6c-1.4-4-0.1-8.6,3.2-11.2c3.2-2.6,7.8-2.8,11.4-0.7
							c3.6,2.1,5.5,6.4,4.7,10.5C227.9,306.9,223.7,310.3,219,310.3z"/>
					</g>
				</g>
			</g>
		</g>
	</g>
	<path class="st0" d="M322,229.4h-72.6v-44.7c0-16.6-13.5-30.1-30.1-30.1H112.7c-16.6,0-30.1,13.5-30.1,30.1v44.7H56.8v-60.1
		l30.4-20.7c4.6-3.1,5.7-9.3,2.6-13.9s-9.3-5.7-13.9-2.6l-34.8,23.7c-2.7,1.9-4.4,5-4.4,8.3v65.4H10c-5.5,0-10,4.5-10,10v60.9
		c0,5.5,4.5,10,10,10h20V502c0,5.5,4.5,10,10,10h251.9c5.5,0,10-4.5,10-10V310.3h20c5.5,0,10-4.5,10-10v-60.9
		C332,233.9,327.5,229.4,322,229.4L322,229.4z M102.6,184.7c0-5.5,4.5-10.1,10.1-10.1h106.6c5.5,0,10.1,4.5,10.1,10.1v44.7H102.6
		V184.7z M312,290.3h-47.6c-5.5,0-10,4.5-10,10s4.5,10,10,10h17.6V492H50V310.3h120.3c5.5,0,10-4.5,10-10s-4.5-10-10-10H20v-40.9
		h292V290.3z"/>
</g>
</svg>
