<svg width="0" height="0" class="hidden">
  <symbol xmlns="http://www.w3.org/2000/svg" viewBox="0 0 512 512" id="Empati">
    <title>034 - Empathy</title>
    <g transform="translate(0 -1)">
      <path d="M48 424.1c-.9 7.8.1 15.6 2.9 22.9 3.8 13.6 16.1 23.1 30.2 23.3 2.3 0 4.7-.2 7-.7 24.3-5.9 48.2-13.1 71.7-21.5 19.2 11.3 31.3 45.6 34.4 58.4.9 3.8 4.4 6.5 8.3 6.5l213.6-.6c2.7 0 5.2-1.3 6.8-3.5 1.6-2.2 2.1-5 1.3-7.6-2.1-5.8-5-11.3-8.6-16.3-2-2.9-3.8-5.9-5.4-9-3.8-7.9-7.1-16.1-9.6-24.4-4.9-16.5-8.2-33.4-10-50.5-1.6-13.4-1.3-27 .9-40.3.6-3-.6-6.1-2.9-8.1-2.4-2-5.6-2.5-8.5-1.4-2.9 1.1-4.9 3.7-5.4 6.7-2.5 14.9-2.8 30.1-1 45.2 1.9 18.1 5.5 36 10.7 53.4 2.8 9.2 6.3 18.2 10.6 26.8 1.9 3.8 4.1 7.5 6.5 11l.6.9-193 .6c-5.7-20.2-15.9-38.9-30-54.5 2.2-.8 4.3-1.5 6.3-2.2 6.4-2.2 11.2-3.9 13.7-4.7 36.5-11.5 54.8-28.1 54.3-49.4 0-2.3-.9-4.5-2.6-6-1.6-1.6-3.9-2.4-6.1-2.3-4.7.1-8.4 4-8.3 8.7.2 8.8-7 21.6-42.3 32.7-2.5.8-7.5 2.6-14.1 4.9-6.1 2.1-13.6 4.8-21.8 7.6-24 8.7-48.4 16.1-73.2 22.1-8 1.5-15.7-3.5-17.5-11.4-1.8-4.8-2.6-9.9-2.1-15.1.2-1.8.6-3.5 1-5.3 1.8-5.9 2-12.2.8-18.2-2.4-7.8-8.2-14.2-15.7-17.5l-1.8-1c.9-1.9 2-3.6 3.3-5.3 1.4-1.8 2-4.1 1.7-6.4-.3-2.3-1.5-4.3-3.4-5.7-2-1.5-6.9-5.2-10.4-8 .4-.8.9-1.7 1.4-2.5 1.3-2.3 2.8-5 4.3-8 2.7-6 3.5-12.6 2.3-19.1-2-10.5-11.9-15.6-19.2-19.3-2.5-1.2-4.8-2.5-7-4.1-1.8-1.2-3.5-2.6-5.1-4.1 0-1.3 1.3-4.4 7.9-12.4 15.2-19.7 28.3-40.9 38.9-63.4 2-3.5 3.2-7.5 3.3-11.6-.9-8.6-5.4-16.4-12.5-21.3-3.4-3.2-6.7-6.1-7.1-8.8 0-2.1.5-4.1 1.4-6 1.4-3.7 3-7.4 4.7-11 3.5-7.2 6.2-14.7 8.3-22.4l.7-3c1.8-8.7 4.2-17.4 7.1-25.8 6.7-18.6 17.1-35.6 30.5-50 16.5-17.5 41.4-29.3 76.3-36.4 26.3-5.8 53-9.6 79.9-11.5 34.1-2.1 68.2 5.8 97.9 22.7 2.7 1.5 5.9 1.4 8.5-.2 2.6-1.6 4.2-4.4 4.1-7.5-.1-3-1.7-5.8-4.4-7.3-32.5-18.4-69.7-27-107-24.9-27.7 1.9-55.2 5.9-82.3 11.8-38.4 7.7-66.3 21.3-85.3 41.4C73.4 70.3 61.8 89.3 54.4 110c-3.1 9.1-5.7 18.4-7.7 27.9l-.7 3c-1.8 6.6-4.2 13.1-7.2 19.3-1.8 4-3.5 7.9-5 11.9-2 4.5-2.8 9.4-2.3 14.3 1.7 7.6 6.1 14.4 12.4 19 4.2 3.8 6.9 6.5 6.9 9-.3 1.3-.8 2.5-1.5 3.7C39.1 239.7 26.6 260 12 278.9c-6.1 7.5-12.5 16.2-11.2 25 1.8 6.7 6.3 12.4 12.3 15.9 2.8 1.9 5.8 3.7 8.9 5.1 3.7 1.9 9.8 5 10.2 7.3.6 2.9.2 5.9-.9 8.6-1.3 2.7-2.6 5-3.7 7-3.3 5.9-8.3 14.8-.5 21.5 1.8 1.6 5 4.1 7.9 6.3-2.1 3.8-3.1 8.1-2.7 12.4.5 3.3 2.3 6.3 5 8.3 1.9 1.4 3.9 2.6 6 3.7 5 2.9 7 4.2 7.6 6.8.5 3.5.1 7-.9 10.4-1.2 2.4-1.7 4.6-2 6.9z"></path>
      <path d="M95.3 152.8l.9-3.7c1.5-7.1 3.4-14.2 5.7-21.1 5.1-14.2 13.1-27.3 23.4-38.4 11.1-10.4 24.6-17.9 39.3-21.6 2.9-.9 5.1-3.3 5.8-6.2.7-3-.3-6.1-2.5-8.2-2.2-2.1-5.4-2.8-8.3-1.9-17.6 4.6-33.7 13.6-46.8 26.2-11.9 12.8-21.1 27.8-27 44.2-2.6 7.6-4.7 15.3-6.3 23.1l-.9 3.7c-.8 3 .1 6.2 2.4 8.3 2.2 2.1 5.5 2.9 8.4 2 3.1-.8 5.3-3.3 5.9-6.4z"></path>
      <circle cx="76.8" cy="180.2" r="8.5"></circle>
      <path d="M434.9 263.3l49.3-49.7 1.6-1.6.1-.1c.2-.2.4-.4.5-.6C521 174 520.1 116.1 484.2 80c-35.5-36.3-93.6-37.3-130.3-2.3-.8.7-1.6 1.5-2.3 2.3-.1.1-.1.1-.1.2l-89.2 90c-10.2 10.3-10.2 26.9 0 37.2 4.9 4.9 11.5 7.7 18.4 7.7l85.5 86.3c3.6 3.7 3.6 9.5 0 13.1-1.7 1.7-4 2.7-6.4 2.7-2.4 0-4.7-1-6.4-2.7L249.3 209.6c-3.3-3.3-8.7-3.4-12.1-.1-3.3 3.3-3.4 8.7-.1 12.1L341 326.5c3.6 3.7 3.6 9.5 0 13.2-3.6 3.5-9.2 3.5-12.8 0L193.1 203.2c-.6-.6-1.2-1.3-1.8-1.9-28.4-30.6-27.6-78.1 1.8-107.7C207.5 79.1 227 71 247.4 71s39.9 8.2 54.2 22.7c2.1 2.2 5.3 3.1 8.3 2.4 3-.8 5.3-3.1 6.1-6.1.8-3-.1-6.2-2.3-8.3C296.2 64 272.3 54 247.4 54s-48.8 10-66.3 27.7c-35.9 36.1-36.9 94.1-2.2 131.3.1.1.1.2.1.2l2 2 .1.1 135.1 136.3c4.9 5 11.6 7.7 18.5 7.7 7 0 13.6-2.8 18.5-7.7 4.6-4.7 7.3-11 7.5-17.5 6.6-.2 12.8-3 17.4-7.6 4.6-4.7 7.3-11 7.5-17.5 6.6-.2 12.8-3 17.4-7.7 4.6-4.7 7.3-10.9 7.5-17.5 6.6-.3 12.8-3 17.4-7.7 3.5-3.6 6-8 7-12.8zm-160.6-81.2L365.6 90c30-28.6 77.5-27.8 106.5 1.9 29.5 29.6 30.3 77.1 1.8 107.7l-.5.5-42.3 42.7c-.9-1.4-2-2.7-3.1-3.8l-80.1-80.8 7.5-7.6c10.8 10.4 24.8 16.8 39.8 18.1 17.3.3 33.9-7 45.3-20.1 2.1-2.2 3-5.3 2.2-8.3-.8-2.9-3.1-5.2-6.1-6-3-.8-6.1.1-8.2 2.3-8.1 9.4-19.8 14.9-32.2 15.1a54.31 54.31 0 01-34.1-18.6c-1.5-1.9-3.8-3-6.2-3.1-2.4-.1-4.8.8-6.5 2.5L329.9 152 305 177.1l-17.9 18c-1.7 1.7-4 2.7-6.4 2.7-2.4 0-4.7-1-6.4-2.7-3.4-3.5-3.5-9.3 0-13zm116.6 107.2c-3.6 3.5-9.2 3.5-12.8 0l-80.2-80.9c.4-.4.9-.7 1.3-1.1l11.8-11.9 79.8 80.6.1.1c3.6 3.7 3.6 9.5 0 13.2zm12.2-25.1L323 183.3l12.9-13 80 80.7c3.6 3.7 3.6 9.5 0 13.1a9.21 9.21 0 01-12.8.1z"></path>
    </g>
  </symbol>
  <symbol xmlns="http://www.w3.org/2000/svg" viewBox="0 0 512 512" id="Inovasi">
    <path d="M322.7 355.5c56.2-25.5 92.5-81.8 92.5-143.5 0-33.3-10.3-65.1-29.7-92-2.4-3.3-7-4.1-10.4-1.7-3.3 2.4-4.1 7-1.7 10.4 17.6 24.4 26.9 53.2 26.9 83.3 0 55.9-32.9 106.9-83.8 129.9-9.9 4.5-16.3 14.3-16.3 25.1v33.6H215V367c0-10.7-6.3-20.5-16.1-25-51.3-23.2-84.2-74.5-84-130.7.3-78.3 64.3-142 142.6-142 34.4 0 67.6 12.4 93.6 35 3.1 2.7 7.8 2.4 10.5-.7 2.7-3.1 2.4-7.8-.7-10.5-28.6-24.9-65.3-38.6-103.3-38.6-42 0-81.5 16.3-111.1 45.8-29.7 29.6-46.1 69-46.3 110.9-.3 62.1 36.1 118.7 92.7 144.3 4.4 2 7.3 6.5 7.3 11.4v33.6h-2.6c-9.6 0-17.4 7.8-17.4 17.4v12c0 9.2 7.1 16.7 16.1 17.4l6.3 39c2.2 13.4 13.5 23.1 27.1 23.1h10.6c4.1 0 7.4-3.3 7.4-7.4s-3.3-7.4-7.4-7.4h-10.6c-6.2 0-11.4-4.5-12.4-10.6l-5.9-36.6H223c4.1 0 7.4-3.3 7.4-7.4 0-4.1-3.3-7.4-7.4-7.4h-25.4c-1.4 0-2.6-1.2-2.6-2.6v-12c0-1.4 1.2-2.6 2.6-2.6h120c1.4 0 2.6 1.2 2.6 2.6v12c0 1.4-1.2 2.6-2.6 2.6h-60c-4.1 0-7.4 3.3-7.4 7.4 0 4.1 3.3 7.4 7.4 7.4H304l-5.9 36.6c-1 6.1-6.2 10.6-12.4 10.6H275c-4.1 0-7.4 3.3-7.4 7.4s3.3 7.4 7.4 7.4h10.6c13.5 0 24.9-9.7 27.1-23.1l6.3-39c9-.7 16.1-8.2 16.1-17.4v-12c0-9.6-7.8-17.4-17.4-17.4h-2.6V367c0-4.9 3-9.5 7.6-11.5z"></path>
    <path d="M285.6 512H275c-5.5 0-9.9-4.4-9.9-9.9s4.4-9.9 9.9-9.9h10.6c5 0 9.2-3.6 10-8.5L301 450h-43.4c-5.5 0-9.9-4.4-9.9-9.9s4.4-9.9 9.9-9.9h60c.1 0 .1 0 .1-.1v-12c0-.1-.1-.1-.1-.1h-120s-.1 0-.1.1v12c0 .1 0 .1.1.1H223c5.5 0 9.9 4.4 9.9 9.9s-4.4 9.9-9.9 9.9h-8.7l5.4 33.7c.8 4.9 5 8.5 10 8.5h10.6c5.5 0 9.9 4.4 9.9 9.9s-4.4 9.9-9.9 9.9h-10.6c-14.8 0-27.2-10.6-29.5-25.2l-6-37.2c-9.4-1.7-16.4-9.9-16.4-19.6v-12c0-11 8.9-19.9 19.9-19.9h.1V367c0-4-2.3-7.6-5.9-9.2-57.5-26-94.5-83.5-94.2-146.6.2-42.6 16.9-82.7 47.1-112.7C174.9 68.6 215 52 257.7 52c38.6 0 75.9 13.9 104.9 39.2 2 1.7 3.2 4.1 3.4 6.8.2 2.6-.7 5.2-2.4 7.2s-4.1 3.2-6.8 3.4c-2.6.2-5.2-.7-7.2-2.4-25.5-22.2-58.1-34.4-91.9-34.4-76.9 0-139.8 62.6-140.2 139.5-.3 55.3 32.1 105.7 82.5 128.4 10.6 4.8 17.5 15.5 17.5 27.2v31.2h80.2V367c0-11.7 7-22.4 17.7-27.3 50-22.7 82.3-72.8 82.3-127.7 0-29.6-9.1-57.9-26.4-81.9-1.5-2.1-2.2-4.8-1.7-7.4.4-2.6 1.8-4.9 4-6.5 4.4-3.2 10.6-2.2 13.8 2.2 19.7 27.3 30.2 59.7 30.2 93.5 0 62.6-36.9 119.8-93.9 145.7-3.7 1.7-6.1 5.3-6.1 9.3v31.2h.1c11 0 19.9 8.9 19.9 19.9v12c0 9.7-7.1 17.9-16.4 19.6l-6 37.2c-2.4 14.6-14.8 25.2-29.6 25.2zM275 497.1c-2.7 0-5 2.2-5 5s2.2 5 5 5h10.6c12.3 0 22.7-8.8 24.6-21l6.6-40.9 1.9-.1c7.7-.6 13.8-7.1 13.8-14.9v-12c0-8.3-6.7-15-15-15h-5.1V367c0-5.9 3.5-11.3 9-13.8 55.3-25.1 91-80.5 91-141.2 0-32.8-10.1-64.1-29.2-90.6-1.6-2.2-4.7-2.7-6.9-1.1-1.1.8-1.8 1.9-2 3.2-.2 1.3.1 2.6.9 3.7 17.9 24.8 27.3 54.1 27.3 84.8 0 56.8-33.5 108.7-85.2 132.2-9 4.1-14.8 13-14.8 22.8v36.1h-90.1V367c0-9.8-5.7-18.7-14.6-22.7-52.2-23.6-85.7-75.7-85.4-133 .4-79.7 65.4-144.5 145.1-144.5 35 0 68.8 12.6 95.2 35.6 1 .9 2.3 1.3 3.6 1.2 1.3-.1 2.5-.7 3.4-1.7.9-1 1.3-2.3 1.2-3.6-.1-1.3-.7-2.5-1.7-3.4-28.2-24.5-64.3-38-101.7-38-41.3 0-80.2 16-109.4 45.1-29.2 29.1-45.4 67.9-45.6 109.2-.3 61.1 35.5 116.9 91.3 142 5.3 2.4 8.8 7.8 8.8 13.7V403h-5.1c-8.2 0-15 6.7-15 15v12c0 7.8 6.1 14.3 13.8 14.9l1.9.1 6.6 40.9c2 12.2 12.3 21 24.6 21H240c2.7 0 5-2.2 5-5s-2.2-5-5-5h-10.6c-7.4 0-13.7-5.3-14.9-12.7l-6.4-39.5H223c2.7 0 5-2.2 5-5 0-2.7-2.2-5-5-5h-25.4c-2.8 0-5.1-2.3-5.1-5.1v-12c0-2.8 2.3-5.1 5.1-5.1h120c2.8 0 5.1 2.3 5.1 5.1v12c0 2.8-2.3 5.1-5.1 5.1h-60c-2.7 0-5 2.2-5 5 0 2.7 2.2 5 5 5h49.2l-6.4 39.5c-1.2 7.3-7.4 12.7-14.9 12.7H275z"></path>
    <path d="M166.2 252v44c0 4.1 3.3 7.4 7.4 7.4h168.1c4.1 0 7.4-3.3 7.4-7.4v-44c0-26.2-21.3-47.4-47.4-47.4h-5.5c11.6-10.5 18.9-25.7 18.9-42.6 0-31.7-25.8-57.4-57.4-57.4s-57.4 25.8-57.4 57.4c0 16.9 7.3 32.1 18.9 42.6h-5.5c-26.2 0-47.5 21.2-47.5 47.4zm48.9-90c0-23.5 19.1-42.6 42.6-42.6s42.6 19.1 42.6 42.6-19.1 42.6-42.6 42.6-42.6-19.2-42.6-42.6zm86.6 57.4c18 0 32.6 14.6 32.6 32.6v36.6h-27.2V276c0-4.1-3.3-7.4-7.4-7.4-4.1 0-7.4 3.3-7.4 7.4v12.6h-69.2V276c0-4.1-3.3-7.4-7.4-7.4-4.1 0-7.4 3.3-7.4 7.4v12.6h-27.2V252c0-18 14.6-32.6 32.6-32.6h88z"></path>
    <path d="M341.7 305.9H173.6c-5.5 0-9.9-4.4-9.9-9.9v-44c0-27.4 22.2-49.7 49.5-49.9-9.9-11-15.5-25.3-15.5-40.1 0-33 26.9-59.9 59.9-59.9s59.9 26.9 59.9 59.9c0 14.8-5.6 29.2-15.5 40.1 27.3.2 49.5 22.5 49.5 49.9v44c.1 5.5-4.3 9.9-9.8 9.9zM213.6 207c-24.8 0-45 20.2-45 45v44c0 2.7 2.2 5 5 5h168.1c2.7 0 5-2.2 5-5v-44c0-24.8-20.2-45-45-45h-11.9l4.8-4.3c11.5-10.4 18.1-25.3 18.1-40.8 0-30.3-24.7-55-55-55s-55 24.7-55 55c0 15.5 6.6 30.3 18.1 40.8l4.8 4.3h-12zm123.1 84.1h-32.1V276c0-2.7-2.2-5-5-5-2.7 0-5 2.2-5 5v15.1h-74.1V276c0-2.7-2.2-5-5-5-2.7 0-5 2.2-5 5v15.1h-32.1V252c0-19.3 15.7-35.1 35.1-35.1h88c19.3 0 35.1 15.7 35.1 35.1v39.1zm-27.1-5h22.2V252c0-16.6-13.5-30.1-30.1-30.1h-88c-16.6 0-30.1 13.5-30.1 30.1v34.1h22.2V276c0-5.5 4.4-9.9 9.9-9.9s9.9 4.4 9.9 9.9v10.1h64.2V276c0-5.5 4.4-9.9 9.9-9.9s9.9 4.4 9.9 9.9v10.1zM257.7 207c-24.9 0-45.1-20.2-45.1-45.1s20.2-45.1 45.1-45.1c24.9 0 45.1 20.2 45.1 45.1S282.5 207 257.7 207zm0-85.2c-22.1 0-40.1 18-40.1 40.1s18 40.1 40.1 40.1 40.1-18 40.1-40.1-18-40.1-40.1-40.1zm0-84.5c4.1 0 7.4-3.3 7.4-7.4v-20c0-4.1-3.3-7.4-7.4-7.4-4.1 0-7.4 3.3-7.4 7.4v20c-.1 4.1 3.3 7.4 7.4 7.4z"></path>
    <path d="M257.7 39.8c-5.5 0-9.9-4.4-9.9-9.9v-20c0-5.5 4.4-9.9 9.9-9.9s9.9 4.4 9.9 9.9v20c0 5.5-4.5 9.9-9.9 9.9zm0-34.8c-2.7 0-5 2.2-5 5v20c0 2.7 2.2 5 5 5 2.7 0 5-2.2 5-5V10c-.1-2.8-2.3-5-5-5zm-97.5 53c1.4 2.4 3.9 3.7 6.4 3.7 1.3 0 2.5-.3 3.7-1 3.6-2.1 4.8-6.6 2.7-10.1l-10-17.3c-2.1-3.6-6.6-4.8-10.1-2.7-3.6 2.1-4.8 6.6-2.7 10.1l10 17.3z"></path>
    <path d="M166.6 64.2c-3.5 0-6.8-1.9-8.6-5l-10-17.3c-2.7-4.7-1.1-10.8 3.6-13.5 2.3-1.3 5-1.7 7.5-1 2.6.7 4.7 2.3 6 4.6l10 17.3c2.7 4.7 1.1 10.8-3.6 13.5-1.4.9-3.1 1.4-4.9 1.4zm-4.3-7.4c.9 1.5 2.5 2.5 4.3 2.5.9 0 1.7-.2 2.5-.7 2.4-1.4 3.2-4.4 1.8-6.8l-10-17.3c-.7-1.1-1.7-2-3-2.3-1.3-.3-2.6-.2-3.8.5-2.4 1.4-3.2 4.4-1.8 6.8l10 17.3zm-83.4 60.6l17.3 10c1.2.7 2.4 1 3.7 1 2.6 0 5.1-1.3 6.4-3.7 2.1-3.6.8-8.1-2.7-10.1l-17.3-10c-3.6-2.1-8.1-.8-10.1 2.7s-.8 8 2.7 10.1z"></path>
    <path d="M100 130.9c-1.7 0-3.4-.5-4.9-1.3l-17.3-10c-4.7-2.7-6.4-8.8-3.6-13.5 1.3-2.3 3.5-3.9 6-4.6 2.6-.7 5.2-.3 7.5 1l17.3 10c4.7 2.7 6.4 8.8 3.6 13.5-1.8 3-5.1 4.9-8.6 4.9zM82.7 106c-.4 0-.9.1-1.3.2-1.3.3-2.3 1.2-3 2.3-1.4 2.4-.6 5.4 1.8 6.8l17.3 10c.8.4 1.6.7 2.5.7 1.8 0 3.4-.9 4.3-2.5 1.4-2.4.6-5.4-1.8-6.8l-17.3-10c-.8-.5-1.7-.7-2.5-.7zm.3 106c0-4.1-3.3-7.4-7.4-7.4h-20c-4.1 0-7.4 3.3-7.4 7.4s3.3 7.4 7.4 7.4h20c4.1 0 7.4-3.3 7.4-7.4z"></path>
    <path d="M75.6 221.9h-20c-5.5 0-9.9-4.4-9.9-9.9s4.4-9.9 9.9-9.9h20c5.5 0 9.9 4.4 9.9 9.9s-4.4 9.9-9.9 9.9zm-20-14.9c-2.7 0-5 2.2-5 5s2.2 5 5 5h20c2.7 0 5-2.2 5-5s-2.2-5-5-5h-20zm40.7 89.6l-17.3 10c-3.6 2.1-4.8 6.6-2.7 10.1 1.4 2.4 3.9 3.7 6.4 3.7 1.3 0 2.5-.3 3.7-1l17.3-10c3.6-2.1 4.8-6.6 2.7-10.1-2-3.5-6.6-4.8-10.1-2.7z"></path>
    <path d="M82.7 322.9c-3.5 0-6.8-1.9-8.6-5-1.3-2.3-1.7-5-1-7.5.7-2.6 2.3-4.7 4.6-6l17.3-10c2.3-1.3 5-1.7 7.5-1 2.6.7 4.7 2.3 6 4.6 2.7 4.7 1.1 10.8-3.6 13.5l-17.3 10c-1.5 1-3.2 1.4-4.9 1.4zm14.8-24.2l-17.3 10c-2.4 1.4-3.2 4.4-1.8 6.8.9 1.5 2.5 2.5 4.3 2.5.9 0 1.7-.2 2.5-.7l17.3-10c2.4-1.4 3.2-4.4 1.8-6.8-.7-1.1-1.7-2-3-2.3-1.3-.3-2.6-.1-3.8.5zM345 60.7c1.2.7 2.4 1 3.7 1 2.6 0 5.1-1.3 6.4-3.7l10-17.3c2.1-3.6.8-8.1-2.7-10.1-3.6-2.1-8.1-.8-10.1 2.7l-10 17.3c-2.1 3.5-.9 8.1 2.7 10.1z"></path>
    <path d="M348.7 64.2c-1.7 0-3.4-.5-4.9-1.3-2.3-1.3-3.9-3.5-4.6-6-.7-2.6-.3-5.2 1-7.5l10-17.3c1.3-2.3 3.5-3.9 6-4.6 2.6-.7 5.2-.3 7.5 1 4.7 2.7 6.4 8.8 3.6 13.5l-10 17.3c-1.8 3-5.1 4.9-8.6 4.9zm-2.5-5.6c.8.4 1.6.7 2.5.7 1.8 0 3.4-.9 4.3-2.5l10-17.3c1.4-2.4.6-5.4-1.8-6.8-1.1-.7-2.5-.8-3.8-.5-1.3.3-2.3 1.2-3 2.3l-10 17.3c-.7 1.1-.8 2.5-.5 3.8.4 1.3 1.2 2.3 2.3 3zm69.2 69.8c1.3 0 2.5-.3 3.7-1l17.3-10c3.6-2.1 4.8-6.6 2.7-10.1-2.1-3.6-6.6-4.8-10.1-2.7l-17.3 10c-3.6 2.1-4.8 6.6-2.7 10.1 1.3 2.3 3.8 3.7 6.4 3.7z"></path>
    <path d="M415.4 130.9c-3.5 0-6.8-1.9-8.6-5-2.7-4.7-1.1-10.8 3.6-13.5l17.3-10c2.3-1.3 5-1.7 7.5-1 2.6.7 4.7 2.3 6 4.6 2.7 4.7 1.1 10.8-3.6 13.5l-17.3 10c-1.5.9-3.2 1.4-4.9 1.4zm17.3-24.9c-.9 0-1.7.2-2.5.7l-17.3 10c-2.4 1.4-3.2 4.4-1.8 6.8.9 1.5 2.5 2.5 4.3 2.5.9 0 1.7-.2 2.5-.7l17.3-10c2.4-1.4 3.2-4.4 1.8-6.8-.7-1.1-1.7-2-3-2.3-.5-.2-.9-.2-1.3-.2zm27 98.6h-20c-4.1 0-7.4 3.3-7.4 7.4s3.3 7.4 7.4 7.4h20c4.1 0 7.4-3.3 7.4-7.4s-3.3-7.4-7.4-7.4z"></path>
    <path d="M459.7 221.9h-20c-5.5 0-9.9-4.4-9.9-9.9s4.4-9.9 9.9-9.9h20c5.5 0 9.9 4.4 9.9 9.9s-4.4 9.9-9.9 9.9zm-20-14.9c-2.7 0-5 2.2-5 5s2.2 5 5 5h20c2.7 0 5-2.2 5-5s-2.2-5-5-5h-20zm-3.3 99.6l-17.3-10c-3.6-2.1-8.1-.8-10.1 2.7-2.1 3.6-.8 8.1 2.7 10.1l17.3 10c1.2.7 2.4 1 3.7 1 2.6 0 5.1-1.3 6.4-3.7 2.1-3.5.8-8.1-2.7-10.1z"></path>
    <path d="M432.7 322.9c-1.7 0-3.4-.5-4.9-1.3l-17.3-10c-2.3-1.3-3.9-3.5-4.6-6-.7-2.6-.3-5.2 1-7.5s3.5-3.9 6-4.6c2.6-.7 5.2-.3 7.5 1l17.3 10c2.3 1.3 3.9 3.5 4.6 6s.3 5.2-1 7.5c-1.8 3-5.1 4.9-8.6 4.9zm-17.3-24.8c-.4 0-.9.1-1.3.2-1.3.3-2.3 1.2-3 2.3-1.4 2.4-.6 5.4 1.8 6.8l17.3 10c.8.4 1.6.7 2.5.7 1.8 0 3.4-.9 4.3-2.5 1.4-2.4.6-5.4-1.8-6.8l-17.3-10c-.8-.5-1.7-.7-2.5-.7z"></path>
  </symbol>
  <symbol xmlns="http://www.w3.org/2000/svg" viewBox="0 0 512 512" id="Komunikatif">
    <path d="M313.7 181.5c-1.5 0-3.1-.3-4.5-1.1-3.4-1.7-5.5-5.2-5.5-8.9v-21h-12.1c-11.3 0-20.5-9.2-20.5-20.5V20.6c0-11.3 9.2-20.6 20.6-20.6h199.8C502.8 0 512 9.2 512 20.5v109.4c0 11.3-9.2 20.6-20.6 20.6h-133l-38.7 29c-1.8 1.3-3.9 2-6 2zM291.6 20c-.3 0-.6.2-.6.6V130c0 .3.2.5.5.5h22.1c5.5 0 10 4.5 10 10v11l25.4-19c1.7-1.3 3.8-2 6-2h136.4c.3 0 .6-.2.6-.6V20.5c0-.3-.2-.5-.5-.5H291.6z"></path>
    <path d="M450 58.8H333c-5.5 0-10-4.5-10-10s4.5-10 10-10h117c5.5 0 10 4.5 10 10s-4.4 10-10 10zm0 47H333c-5.5 0-10-4.5-10-10s4.5-10 10-10h117c5.5 0 10 4.5 10 10s-4.4 10-10 10zm-284 34.5c-38.7 0-70.1-31.5-70.1-70.1S127.3 0 166 0c38.7 0 70.1 31.5 70.1 70.1 0 38.7-31.4 70.2-70.1 70.2zM166 20c-27.6 0-50.1 22.5-50.1 50.1s22.5 50.1 50.1 50.1 50.1-22.5 50.1-50.1S193.6 20 166 20zm53 290.3c-4.2 0-8-2.7-9.4-6.6-1.4-4-.1-8.6 3.2-11.2 3.2-2.6 7.8-2.8 11.4-.7 3.6 2.1 5.5 6.4 4.7 10.5-1 4.6-5.2 8-9.9 8z"></path>
    <path d="M322 229.4h-72.6v-44.7c0-16.6-13.5-30.1-30.1-30.1H112.7c-16.6 0-30.1 13.5-30.1 30.1v44.7H56.8v-60.1l30.4-20.7c4.6-3.1 5.7-9.3 2.6-13.9s-9.3-5.7-13.9-2.6l-34.8 23.7c-2.7 1.9-4.4 5-4.4 8.3v65.4H10c-5.5 0-10 4.5-10 10v60.9c0 5.5 4.5 10 10 10h20V502c0 5.5 4.5 10 10 10h251.9c5.5 0 10-4.5 10-10V310.3h20c5.5 0 10-4.5 10-10v-60.9c.1-5.5-4.4-10-9.9-10zm-219.4-44.7c0-5.5 4.5-10.1 10.1-10.1h106.6c5.5 0 10.1 4.5 10.1 10.1v44.7H102.6v-44.7zM312 290.3h-47.6c-5.5 0-10 4.5-10 10s4.5 10 10 10H282V492H50V310.3h120.3c5.5 0 10-4.5 10-10s-4.5-10-10-10H20v-40.9h292v40.9z"></path>
  </symbol>
  <symbol xmlns="http://www.w3.org/2000/svg" viewBox="0 0 512 512" id="Simpati">
    <path d="M402.8 106c0-34.8-22.8-90-83.9-90-25.1 0-46.2 11.8-63 35.2C239.3 27.8 218.2 16 193.1 16c-61.1 0-83.9 55.2-83.9 90 0 60 46.8 97.5 110.8 152.2 9.4 8 19.1 16.3 29.5 25.3 1.9 1.6 4.2 2.4 6.6 2.4 2.3 0 4.7-.8 6.6-2.4 10.4-9 20.1-17.3 29.5-25.3C359 201 402.8 164.7 402.8 106zM256 262.8c-8-6.9-15.6-13.4-23-19.8-66.9-57.2-103.8-88.7-103.8-137 0-32.7 21.4-70 63.9-70 22.2 0 39.9 12.7 54.2 38.9 1.8 3.2 5.1 5.2 8.8 5.2 3.7 0 7-2 8.8-5.2 14.3-26.2 32-38.9 54.2-38.9C361 36 383 72.7 383 106c0 48.3-36.9 79.8-103.8 137-7.6 6.4-15.2 12.9-23.2 19.8zM71.9 408.1l48.1 24.1V486c0 5.5 4.5 10 10 10h106c5.5 0 10-4.5 10-10V355.5c0-30.6-23-56-53.4-59.1l-.8-.1c-17.6-1.8-48.8-13.8-61.1-26.1l-22.5-22.4C100.7 240.2 90.7 236 80 236v-80c0-22.1-17.9-40-40-40S0 133.9 0 156v135.8c0 49.3 27.8 94.3 71.9 116.3zM20 156c0-11 9-20 20-20s20 9 20 20v85.4c-12.2 7.1-20 20.2-20 34.6 0 10.7 4.2 20.7 11.7 28.3l51.2 51.2c3.9 3.9 10.2 3.9 14.1 0 3.9-3.9 3.9-10.2 0-14.1l-51.2-51.2c-3.8-3.8-5.9-8.8-5.9-14.1 0-8.5 5.4-16 13.3-18.9 6.9-2.4 15.1-1 20.8 4.7l22.5 22.4c23.2 23.2 73.8 31.9 73.9 31.9 20.2 2 35.5 18.9 35.5 39.2V476h-86v-50c0-3.8-2.1-7.3-5.5-8.9l-53.7-26.8C43.3 371.5 20 333.8 20 291.8V156z"></path>
    <circle cx="459" cy="384" r="10"></circle>
    <path d="M472 116c-22.1 0-40 17.9-40 40v80c-10.7 0-20.7 4.2-28.3 11.7l-22.5 22.5c-12.3 12.3-43.5 24.3-61.1 26.1l-.7.1c-30.5 3.1-53.5 28.5-53.5 59.1V486c0 5.5 4.5 10 10 10h106c5.5 0 10-4.5 10-10v-53.8l32.7-16.4c4.9-2.5 6.9-8.5 4.5-13.4-2.5-4.9-8.5-6.9-13.4-4.5L377.4 417c-3.4 1.7-5.5 5.2-5.5 8.9v50h-86V355.5c0-20.3 15.2-37.2 35.5-39.2l.7-.1c21.7-2.2 57.6-16.3 73.2-31.9l22.5-22.5c5.7-5.7 13.9-7.2 20.8-4.7 8 2.8 13.3 10.4 13.3 18.9 0 5.3-2.1 10.4-5.9 14.1l-51.2 51.2c-3.9 3.9-3.9 10.2 0 14.1 3.9 3.9 10.2 3.9 14.1 0l51.2-51.2c7.6-7.6 11.7-17.6 11.7-28.3 0-14.4-7.8-27.6-20-34.6V156c0-11 9-20 20-20s20 9 20 20v135.8c0 18.3-4.6 36.5-13.4 52.5-2.6 4.9-.8 10.9 4 13.6 4.9 2.6 10.9.8 13.6-4 10.3-19 15.8-40.5 15.8-62.1V156c.2-22.1-17.7-40-39.8-40z"></path>
  </symbol>
  <symbol xmlns="http://www.w3.org/2000/svg" viewBox="0 0 512 512" id="Sportif">
    <path d="M512 110c0-13.8-9.4-25.5-22.1-28.9 1.4-3.4 2.1-7.2 2.1-11.1 0-13.8-9.4-25.5-22.1-28.9 1.4-3.4 2.1-7.2 2.1-11.1 0-16.5-13.5-30-30-30H334.2c-22.4 0-45 5.3-65.5 15.5l-9.1 4.5H150c-3.9 0-7.6.8-11.1 2.1C135.5 9.4 123.8 0 110 0S84.5 9.4 81.1 22.1C77.6 20.8 73.9 20 70 20c-13.8 0-25.5 9.4-28.9 22.1C37.6 40.8 33.9 40 30 40 13.5 40 0 53.5 0 70v107.8c0 42.2 18.1 69.7 20 74.6V362c0 3.9.8 7.6 2.1 11.1C9.4 376.5 0 388.2 0 402s9.4 25.5 22.1 28.9c-1.4 3.4-2.1 7.2-2.1 11.1 0 13.8 9.4 25.5 22.1 28.9-1.4 3.4-2.1 7.2-2.1 11.1 0 16.5 13.5 30 30 30h24.1c5.5 0 10-4.5 10-10s-4.5-10-10-10H70c-5.5 0-10-4.5-10-10s4.5-10 10-10h20c5.5 0 10-4.5 10-10s-4.5-10-10-10H50c-5.5 0-10-4.5-10-10s4.5-10 10-10h40c5.5 0 10-4.5 10-10s-4.5-10-10-10H30c-5.5 0-10-4.5-10-10s4.5-10 10-10h60c5.5 0 10-4.5 10-10s-4.5-10-10-10H50c-5.5 0-10-4.5-10-10s4.5-10 10-10h100c5.5 0 10-4.5 10-10v-10h25.2c23.9 0 45.3 13.2 55.8 34.4 1.7 3.4 5.2 5.6 9 5.6h82v90c0 3.5.6 6.9 1.7 10H270c-1.6 0-3.1.4-4.5 1.1l-11.2 5.6c-17.7 8.7-37.2 13.4-56.6 13.4h-13.9c-5.5 0-10 4.5-10 10s4.5 10 10 10h13.9c22.4 0 45-5.3 65.5-15.5l9.1-4.5H362c3.9 0 7.6-.8 11.1-2.1 3.5 12.7 15.1 22.1 28.9 22.1s25.5-9.4 28.9-22.1c3.4 1.4 7.2 2.1 11.1 2.1 13.8 0 25.5-9.4 28.9-22.1 3.4 1.4 7.2 2.1 11.1 2.1 16.5 0 30-13.5 30-30V322c0-1.5-.3-3-1-4.2-1.9-16.9-6.9-33.6-14.5-49l-4.5-9.1V150c0-3.9-.8-7.6-2.1-11.1 12.7-3.4 22.1-15.1 22.1-28.9zM140 332H50c-3.5 0-6.9.6-10 1.7V250c0-1.6-.4-3.1-1.1-4.5-2.3-5.8-18.9-30.3-18.9-67.7V70c0-5.5 4.5-10 10-10s10 4.5 10 10v20c0 5.5 4.5 10 10 10s10-4.5 10-10V50c0-5.5 4.5-10 10-10s10 4.5 10 10v40c0 5.5 4.5 10 10 10s10-4.5 10-10V30c0-5.5 4.5-10 10-10s10 4.5 10 10v60c0 5.5 4.5 10 10 10s10-4.5 10-10V50c0-5.5 4.5-10 10-10s10 4.5 10 10v100c0 5.5 4.5 10 10 10h10v25.2c0 23.5-13.5 45.5-34.4 55.8-3.4 1.7-5.6 5.2-5.6 9v82zm45.2-20H160v-56.1c24.8-14.8 40-41.3 40-70.7V160h56.1c14.8 24.8 41.3 40 70.7 40H352v56.1c-24.8 14.8-40 41.3-40 70.7V352h-56.1c-14.7-24.8-41.3-40-70.7-40zM492 442c0 5.5-4.5 10-10 10s-10-4.5-10-10v-20c0-5.5-4.5-10-10-10s-10 4.5-10 10v40c0 5.5-4.5 10-10 10s-10-4.5-10-10v-40c0-5.5-4.5-10-10-10s-10 4.5-10 10v60c0 5.5-4.5 10-10 10s-10-4.5-10-10v-60c0-5.5-4.5-10-10-10s-10 4.5-10 10v40c0 5.5-4.5 10-10 10s-10-4.5-10-10V362c0-5.5-4.5-10-10-10h-10v-25.2c0-23.9 13.2-45.3 34.4-55.8 3.4-1.7 5.6-5.2 5.6-9v-82h90c3.5 0 6.9-.6 10-1.7V262c0 1.6.4 3.1 1.1 4.5l5.6 11.2c8.7 17.7 13.4 37.2 13.4 56.6V442zm-10-322h-60c-5.5 0-10 4.5-10 10s4.5 10 10 10h40c5.5 0 10 4.5 10 10s-4.5 10-10 10H362c-5.5 0-10 4.5-10 10v10h-25.2c-23.5 0-45.5-13.5-55.8-34.4-1.7-3.4-5.2-5.6-9-5.6h-82V50c0-3.5-.6-6.9-1.7-10H262c1.6 0 3.1-.4 4.5-1.1 5.8-2.3 30.3-18.9 67.7-18.9H442c5.5 0 10 4.5 10 10s-4.5 10-10 10h-20c-5.5 0-10 4.5-10 10s4.5 10 10 10h40c5.5 0 10 4.5 10 10s-4.5 10-10 10h-40c-5.5 0-10 4.5-10 10s4.5 10 10 10h60c5.5 0 10 4.5 10 10s-4.5 10-10 10z"></path>
    <circle cx="140" cy="499" r="10"></circle>
  </symbol>
</svg>